<svg width="540" height="380" viewBox="0 0 540 380" fill="none" xmlns="http://www.w3.org/2000/svg">
<rect width="540" height="380" fill="white"/>
<path d="M275.5 331.625C197.006 331.625 133.375 267.994 133.375 189.5C133.375 111.007 197.006 47.375 275.5 47.375C353.993 47.375 417.625 111.007 417.625 189.5C417.625 267.994 353.993 331.625 275.5 331.625Z" fill="#EEF1F5"/>
<path d="M118.807 189.5C118.807 276.623 189.206 347.223 276.015 347.223C362.823 347.223 433.223 276.623 433.223 189.5C433.223 102.377 362.823 31.7772 276.015 31.7772C189.206 31.7772 118.807 102.377 118.807 189.5Z" stroke="#A2ADBB" stroke-width="10"/>
<path d="M87.4999 189.5C87.4999 293.33 171.67 377.5 275.5 377.5C379.33 377.5 463.5 293.33 463.5 189.5C463.5 85.6705 379.33 1.5 275.5 1.5C171.67 1.5 87.4999 85.6705 87.4999 189.5Z" stroke="#D7DBE1" stroke-width="3"/>
<path d="M187.987 195.834C158.887 195.834 135.296 172.228 135.296 143.109C135.296 113.989 158.887 90.3835 187.987 90.3835C217.087 90.3835 240.677 113.989 240.677 143.109C240.677 172.228 217.087 195.834 187.987 195.834Z" fill="#EEF1F5"/>
<path d="M240.755 337.867L383.789 194.737L240.755 51.6074L97.7179 194.737L240.755 337.867Z" fill="#19293E"/>
<path d="M148.815 291.853C120.188 291.853 96.9814 268.631 96.9814 239.986C96.9814 211.34 120.188 188.118 148.815 188.118C177.442 188.118 200.649 211.34 200.649 239.986C200.649 268.631 177.442 291.853 148.815 291.853Z" fill="#F7C242"/>
<path d="M458.131 261.594C441.5 261.594 428.018 248.103 428.018 231.461C428.018 214.82 441.5 201.329 458.131 201.329C474.762 201.329 488.244 214.82 488.244 231.461C488.244 248.103 474.762 261.594 458.131 261.594Z" fill="#1B57A5"/>
<path d="M458.131 249.353C448.256 249.353 440.251 241.343 440.251 231.462C440.251 221.58 448.256 213.57 458.131 213.57C468.005 213.57 476.01 221.58 476.01 231.462C476.01 241.343 468.005 249.353 458.131 249.353Z" fill="#F7C242"/>
<path d="M323.866 249.882C324.183 249.076 324.521 248.28 324.874 247.501L320.643 243.629C322.104 240.674 323.805 237.902 325.715 235.331L330.958 237.504C332.413 235.657 333.989 233.936 335.671 232.341L333.197 227.162C335.864 224.792 338.75 222.704 341.804 220.918L345.787 224.969C347.831 223.848 349.953 222.876 352.135 222.06L351.879 216.33C354.946 215.294 358.11 214.526 361.331 214.051L363.506 219.298C365.809 219.024 368.143 218.915 370.489 218.978L372.396 213.57C375.894 213.777 379.407 214.329 382.895 215.246L382.851 220.928C384.247 221.338 385.638 221.808 387.019 222.351C387.825 222.668 388.62 223.006 389.398 223.36L393.268 219.125C396.223 220.587 398.991 222.29 401.563 224.199L399.393 229.447C401.238 230.903 402.958 232.481 404.553 234.164L409.727 231.689C412.095 234.359 414.181 237.246 415.967 240.302L411.92 244.289C413.04 246.334 414.012 248.457 414.827 250.641L420.552 250.385C421.587 253.454 422.356 256.619 422.831 259.843L417.588 262.019C417.862 264.324 417.971 266.659 417.908 269.006L423.313 270.916C423.107 274.416 422.555 277.931 421.639 281.422L415.962 281.377C415.552 282.775 415.082 284.167 414.54 285.548C414.223 286.354 413.885 287.149 413.532 287.928L417.763 291.8C416.302 294.755 414.6 297.528 412.691 300.099L407.448 297.926C405.993 299.773 404.416 301.494 402.735 303.089L405.209 308.268C402.542 310.637 399.656 312.723 396.602 314.511L392.619 310.461C390.575 311.582 388.452 312.554 386.271 313.37L386.526 319.1C383.46 320.136 380.296 320.904 377.075 321.379L374.9 316.132C372.597 316.406 370.263 316.514 367.917 316.452L366.009 321.859C362.512 321.653 358.999 321.101 355.511 320.184L355.555 314.502C354.159 314.091 352.768 313.622 351.386 313.079C350.581 312.762 349.786 312.423 349.008 312.07L345.137 316.305C342.183 314.843 339.414 313.14 336.844 311.23L339.015 305.983C337.17 304.527 335.45 302.949 333.855 301.266L328.68 303.74C326.313 301.071 324.227 298.184 322.44 295.127L326.488 291.141C325.367 289.097 324.396 286.973 323.581 284.789L317.856 285.045C316.82 281.976 316.052 278.811 315.577 275.587L320.82 273.411C320.546 271.105 320.437 268.771 320.5 266.423L315.095 264.514C315.301 261.014 315.853 257.499 316.769 254.008L322.446 254.052C322.851 252.655 323.322 251.265 323.866 249.882Z" fill="#1B57A5"/>
<path d="M351.858 258.103C353.954 254.316 353.587 249.83 351.29 246.492C357.327 241.391 365.308 239.096 373.134 240.213C372.957 244.264 375.025 248.26 378.81 250.356C382.594 252.454 387.078 252.086 390.413 249.787C395.511 255.828 397.804 263.817 396.687 271.646C392.64 271.469 388.646 273.539 386.55 277.326C384.454 281.114 384.821 285.6 387.118 288.938C381.081 294.038 373.1 296.334 365.274 295.216C365.451 291.165 363.382 287.169 359.598 285.073C355.814 282.976 351.332 283.343 347.995 285.642C342.897 279.601 340.604 271.613 341.721 263.784C345.768 263.963 349.76 261.893 351.858 258.103ZM363.799 277.478C369.187 280.463 375.976 278.513 378.958 273.12C381.94 267.725 379.992 260.934 374.602 257.951C369.213 254.967 362.425 256.916 359.443 262.31C356.461 267.701 358.41 274.495 363.799 277.478Z" fill="#EEF1F5"/>
<path d="M337.173 141.053C337.432 140.406 337.706 139.771 337.995 139.147L334.536 136.05C335.729 133.685 337.121 131.468 338.683 129.41L342.969 131.147C344.158 129.669 345.446 128.292 346.821 127.015L344.8 122.875C346.979 120.98 349.338 119.308 351.834 117.879L355.089 121.12C356.761 120.223 358.493 119.446 360.278 118.793L360.07 114.209C362.579 113.38 365.164 112.766 367.797 112.385L369.574 116.583C371.459 116.366 373.363 116.277 375.281 116.326L376.842 112C379.699 112.165 382.573 112.608 385.423 113.341L385.386 117.887C386.527 118.214 387.663 118.591 388.79 119.025C389.449 119.279 390.1 119.548 390.735 119.831L393.896 116.444C396.311 117.613 398.575 118.976 400.677 120.504L398.901 124.703C400.41 125.868 401.816 127.13 403.121 128.477L407.349 126.498C409.284 128.633 410.99 130.945 412.451 133.387L409.143 136.574C410.058 138.212 410.851 139.909 411.518 141.655L416.199 141.452C417.048 143.908 417.672 146.44 418.061 149.02L413.775 150.759C413.998 152.605 414.089 154.471 414.039 156.349L418.456 157.876C418.287 160.675 417.835 163.49 417.087 166.28L412.445 166.244C412.111 167.362 411.726 168.473 411.283 169.579C411.024 170.225 410.749 170.86 410.46 171.485L413.92 174.581C412.727 176.947 411.335 179.163 409.773 181.222L405.487 179.484C404.297 180.962 403.008 182.34 401.635 183.616L403.656 187.756C401.477 189.651 399.116 191.323 396.622 192.752L393.367 189.512C391.695 190.408 389.963 191.185 388.178 191.839L388.386 196.422C385.877 197.254 383.292 197.865 380.659 198.246L378.882 194.048C376.997 194.266 375.092 194.355 373.174 194.306L371.614 198.631C368.757 198.466 365.883 198.023 363.033 197.29L363.07 192.745C361.929 192.418 360.793 192.04 359.666 191.606C359.007 191.352 358.356 191.084 357.721 190.8L354.559 194.188C352.145 193.019 349.881 191.655 347.779 190.127L349.554 185.928C348.046 184.763 346.64 183.501 345.335 182.155L341.107 184.133C339.172 181.998 337.465 179.686 336.005 177.244L339.313 174.057C338.398 172.42 337.604 170.722 336.937 168.976L332.257 169.179C331.408 166.723 330.784 164.191 330.394 161.612L334.68 159.873C334.458 158.027 334.367 156.161 334.417 154.282L330 152.755C330.168 149.956 330.621 147.141 331.369 144.351L336.011 144.387C336.344 143.269 336.73 142.158 337.173 141.053Z" fill="#49BEE3"/>
<path d="M357.212 155.262L374.266 138.201L391.316 155.267L374.262 172.328L357.212 155.262Z" fill="white"/>
<path d="M104.101 229.89L122.526 231.107L109.762 239.025L104.101 229.89Z" fill="white"/>
<path d="M89.9964 207.132L154.333 211.38L136.84 222.232L97.7548 219.649L89.9964 207.132Z" fill="white"/>
<path d="M75.8923 184.369L174.046 190.855L177.761 196.85L168.644 202.504L83.6507 196.889L75.8923 184.369Z" fill="white"/>
<path d="M67.6052 170.995L80.7235 162.861L159.943 168.094L167.697 180.612L69.5466 174.126L67.6052 170.995Z" fill="white"/>
<path d="M112.529 143.135L145.838 145.334L153.594 157.853L95.0358 153.985L112.529 143.135Z" fill="white"/>
<path d="M135.605 128.822L139.492 135.093L126.841 134.258L135.605 128.822Z" fill="white"/>
<path d="M158.489 102.742L187.723 108.186C187.906 109.153 188.003 110.148 188.003 111.168C188.003 112.033 187.933 112.883 187.799 113.712L156.426 107.867C156.815 106.022 157.522 104.295 158.489 102.742Z" fill="#1B57A5"/>
<path d="M171.826 95.2075L178.011 96.3588C181.389 97.7229 184.191 100.205 185.96 103.35L161.874 98.8637C164.583 96.6181 168.046 95.2585 171.826 95.2075Z" fill="#1B57A5"/>
<path d="M161.781 123.392L177.228 126.269C175.601 126.828 173.859 127.134 172.045 127.134C168.135 127.136 164.556 125.726 161.781 123.392Z" fill="#1B57A5"/>
<path d="M156.129 112.322L186.483 117.976C185.615 119.813 184.409 121.457 182.943 122.829L157.669 118.122C156.812 116.345 156.276 114.388 156.129 112.322Z" fill="#1B57A5"/>
<path d="M275.077 215.573H251.444V239.216H275.077V215.573Z" fill="#1D72D8"/>
<path d="M103 309H97V315H103V309Z" fill="#1D72D8"/>
<path d="M223.378 144.396C223.378 121.136 242.224 102.281 265.475 102.281C288.725 102.281 307.571 121.136 307.571 144.396" fill="#49BEE3"/>
<path d="M314.722 144.396H300.421C300.421 125.119 284.743 109.436 265.477 109.436C246.21 109.436 230.532 125.117 230.532 144.396H216.231C216.231 117.228 238.32 95.1272 265.477 95.1272C292.633 95.1272 314.722 117.23 314.722 144.396Z" fill="#F7C242"/>
<path d="M268.932 202.766H254.631V161.626L314.366 161.626V175.932L268.932 175.932V202.766Z" fill="#F7C242"/>
<path d="M472.485 109.577H490.061V127.16H472.485V109.577Z" fill="#19293E"/>
<path d="M510.933 56.642C510.933 39.3429 496.918 25.3207 479.626 25.3207C462.334 25.3207 448.318 39.3429 448.318 56.642" fill="#19293E"/>
<path d="M443 56.642H453.636C453.636 42.3054 465.296 30.6414 479.625 30.6414C493.953 30.6414 505.614 42.304 505.614 56.642H516.249C516.249 36.4365 499.821 20 479.625 20C459.428 20 443 36.4378 443 56.642Z" fill="#1B57A5"/>
<path d="M477.055 100.052H487.691V69.4556L443.265 69.4556V80.0956L477.055 80.0956V100.052Z" fill="#1B57A5"/>
<path d="M53.6598 341.661H42.1499V353.175H53.6598V341.661Z" fill="#19293E"/>
<path d="M28.4812 306.996C28.4812 295.667 37.6596 286.484 48.9834 286.484C60.3071 286.484 69.4855 295.667 69.4855 306.996" fill="#19293E"/>
<path d="M72.9684 306.996H66.0034C66.0034 297.607 58.3674 289.969 48.9842 289.969C39.6009 289.969 31.965 297.606 31.965 306.996H25C25 293.764 35.7584 283 48.9842 283C62.21 283 72.9684 293.765 72.9684 306.996Z" fill="#49BEE3"/>
<path d="M50.6671 335.423H43.7021V315.387L72.795 315.387V322.354L50.6671 322.355V335.423Z" fill="#49BEE3"/>
<path d="M242.667 264.143L247.365 241.521L181.899 227.915L178.134 246.043L231.776 257.19L234.609 243.559L194.147 235.15L193.47 238.415L230.668 246.144L229.191 253.249L182.076 243.457L184.48 231.858L243.423 244.108L240.081 260.2L211.597 254.282L210.922 257.544L242.667 264.143Z" fill="#1B57A5"/>
<path d="M101.347 139.554L123.699 133.752L106.911 69L89 73.6485L102.757 126.705L116.227 123.208L105.85 83.1914L102.626 84.0293L112.166 120.82L105.143 122.643L93.0597 76.038L104.523 73.0639L119.638 131.363L103.736 135.49L96.4303 107.317L93.205 108.155L101.347 139.554Z" fill="#F7C242"/>
</svg>
