<svg width="538" height="512" viewBox="0 0 538 512" fill="none" xmlns="http://www.w3.org/2000/svg">
<g id="modules">
<path id="Base" d="M192.43 192.717C214.765 170.348 241.845 153.058 269.009 153.058C296.172 153.058 323.275 170.348 345.625 192.717C361.39 208.496 381.473 219.239 403.333 223.589C425.194 227.938 447.852 225.699 468.442 217.153C489.032 208.608 506.63 194.14 519.011 175.579C531.392 157.019 538 135.198 538 112.876C538 90.5545 531.392 68.7338 519.011 50.173C506.63 31.6121 489.032 17.1445 468.442 8.59907C447.852 0.0536359 425.194 -2.18584 403.333 2.16371C381.473 6.51326 361.39 17.2565 345.625 33.0354C323.29 55.4123 296.195 70.887 269.024 70.8947C241.853 70.9023 214.773 55.4429 192.43 33.0812C176.668 17.2958 156.585 6.54606 134.723 2.19126C112.86 -2.16353 90.1995 0.0722029 69.6057 8.61574C49.0119 17.1593 31.4102 31.6269 19.0263 50.1892C6.64243 68.7514 0.0325317 90.5746 0.0325317 112.899C0.0325317 135.224 6.64243 157.047 19.0263 175.609C31.4102 194.171 49.0119 208.639 69.6057 217.182C90.1995 225.726 112.86 227.962 134.723 223.607C156.585 219.252 176.668 208.502 192.43 192.717Z" fill="#F7C242"/>
<g id="Vector" filter="url(#filter0_d)">
<path d="M516 112C516 62.2933 475.707 22 426 22C376.293 22 336 62.2933 336 112C336 161.707 376.293 202 426 202C475.707 202 516 161.707 516 112Z" fill="#F7C242"/>
</g>
<path id="Base_2" d="M298.185 274.978C267.678 266.787 239.182 251.945 225.597 228.386C212.011 204.827 213.412 172.672 221.583 142.104C227.342 120.54 226.588 97.7503 219.416 76.6156C212.244 55.4809 198.976 36.9505 181.289 23.367C163.603 9.78355 142.292 1.75702 120.051 0.302089C97.8107 -1.15284 75.6385 4.0292 56.338 15.1931C37.0376 26.357 21.4755 43.0014 11.6192 63.0221C1.76296 83.0428 -1.94491 105.541 0.964338 127.672C3.87359 149.803 13.2694 170.573 27.9638 187.357C42.6582 204.14 61.9914 216.184 83.5193 221.964C114.049 230.155 140.969 245.912 154.562 269.479C168.155 293.046 168.322 324.254 160.159 354.815C154.383 376.388 155.125 399.192 162.292 420.343C169.459 441.494 182.728 460.041 200.42 473.638C218.113 487.235 239.435 495.272 261.689 496.731C283.943 498.191 306.129 493.007 325.441 481.837C344.754 470.666 360.324 454.01 370.183 433.976C380.043 413.942 383.748 391.429 380.83 369.286C377.912 347.142 368.503 326.363 353.792 309.576C339.081 292.789 319.729 280.748 298.185 274.978Z" fill="#1B57A5"/>
<g id="Vector_2" filter="url(#filter1_d)">
<path d="M22 113C22 63.2933 62.2933 23 112 23C161.707 23 202 63.2933 202 113C202 162.707 161.707 203 112 203C62.2933 203 22 162.707 22 113Z" fill="#1B57A5"/>
</g>
<path id="Vector_3" d="M450.802 222.843C450.04 223.019 449.279 223.209 448.517 223.369C447.756 223.53 447.04 223.652 446.301 223.796C445.159 224.01 444.017 224.231 442.851 224.414L441.565 224.59C440.041 224.811 438.518 225.009 436.995 225.169L436.561 225.215C425.238 226.366 413.807 225.784 402.658 223.491H402.567C400.876 223.141 399.191 222.752 397.51 222.325L396.886 222.164C395.416 221.775 393.954 221.402 392.492 220.913L391.296 220.547C390.048 220.151 388.806 219.724 387.565 219.281L385.813 218.648C384.762 218.252 383.712 217.832 382.661 217.405C381.899 217.1 381.191 216.795 380.46 216.475C379.554 216.086 378.663 215.712 377.764 215.254C376.866 214.797 376.089 214.492 375.259 214.049C374.429 213.607 373.637 213.233 372.83 212.806C372.022 212.379 371.131 211.891 370.294 211.426C369.852 211.174 369.403 210.953 368.961 210.701C368.519 210.45 368.199 210.236 367.842 210.015C367.08 209.58 366.395 209.138 365.671 208.688C364.727 208.093 363.79 207.498 362.869 206.888L361.429 205.904C360.292 205.126 359.175 204.33 358.079 203.517L357.492 203.067C353.11 199.774 348.977 196.162 345.125 192.26C337.978 185.093 330.247 178.534 322.013 172.651C323.886 193.045 321.533 212.654 312.448 228.418C298.87 251.985 270.367 266.842 239.845 275.033C218.319 280.82 198.989 292.868 184.299 309.656C169.609 326.444 160.22 347.217 157.317 369.348C154.413 391.48 158.128 413.977 167.99 433.995C177.851 454.013 193.418 470.653 212.722 481.811C232.025 492.97 254.199 498.146 276.439 496.685C298.679 495.224 319.988 487.191 337.67 473.603C355.353 460.014 368.616 441.48 375.782 420.344C382.949 399.207 383.697 376.417 377.932 354.855C369.753 324.287 369.913 293.078 383.498 269.481C397.015 246.021 423.753 230.294 454.099 222.065H453.977C452.949 222.355 451.883 222.569 450.802 222.843Z" fill="#49BEE3"/>
<path id="merchand&#196;&#177;se plann&#196;&#177;ng" d="M52.2353 110L52.2073 104.806L49.6873 109.034H48.4553L45.9493 104.946V110H43.3873V100.2H45.6693L49.1133 105.856L52.4733 100.2H54.7553L54.7833 110H52.2353ZM67.4127 107.858V110H59.5447V100.2H67.2307V102.342H62.2887V103.994H66.6427V106.066H62.2887V107.858H67.4127ZM76.035 107.396H74.523V110H71.751V100.2H76.231C77.1177 100.2 77.8877 100.349 78.541 100.648C79.1943 100.937 79.6983 101.357 80.053 101.908C80.4077 102.449 80.585 103.089 80.585 103.826C80.585 104.535 80.417 105.156 80.081 105.688C79.7543 106.211 79.283 106.621 78.667 106.92L80.781 110H77.813L76.035 107.396ZM77.785 103.826C77.785 103.369 77.6403 103.014 77.351 102.762C77.0617 102.51 76.6323 102.384 76.063 102.384H74.523V105.254H76.063C76.6323 105.254 77.0617 105.133 77.351 104.89C77.6403 104.638 77.785 104.283 77.785 103.826ZM89.8003 110.196C88.7736 110.196 87.8496 109.981 87.0283 109.552C86.2163 109.113 85.5769 108.507 85.1103 107.732C84.6436 106.957 84.4103 106.08 84.4103 105.1C84.4103 104.12 84.6436 103.243 85.1103 102.468C85.5769 101.693 86.2163 101.091 87.0283 100.662C87.8496 100.223 88.7736 100.004 89.8003 100.004C90.6963 100.004 91.5036 100.163 92.2223 100.48C92.9409 100.797 93.5383 101.255 94.0143 101.852L92.2503 103.448C91.6156 102.683 90.8456 102.3 89.9403 102.3C89.4083 102.3 88.9323 102.417 88.5123 102.65C88.1016 102.883 87.7796 103.215 87.5463 103.644C87.3223 104.064 87.2103 104.549 87.2103 105.1C87.2103 105.651 87.3223 106.141 87.5463 106.57C87.7796 106.99 88.1016 107.317 88.5123 107.55C88.9323 107.783 89.4083 107.9 89.9403 107.9C90.8456 107.9 91.6156 107.517 92.2503 106.752L94.0143 108.348C93.5383 108.945 92.9409 109.403 92.2223 109.72C91.5036 110.037 90.6963 110.196 89.8003 110.196ZM107.374 100.2V110H104.602V106.178H100.822V110H98.0502V100.2H100.822V103.882H104.602V100.2H107.374ZM118.696 108.096H114.552L113.782 110H110.954L115.28 100.2H118.01L122.35 110H119.466L118.696 108.096ZM117.884 106.052L116.624 102.916L115.364 106.052H117.884ZM135.259 100.2V110H132.977L128.651 104.778V110H125.935V100.2H128.217L132.543 105.422V100.2H135.259ZM140.015 100.2H144.649C145.722 100.2 146.674 100.401 147.505 100.802C148.335 101.203 148.979 101.773 149.437 102.51C149.894 103.247 150.123 104.111 150.123 105.1C150.123 106.089 149.894 106.953 149.437 107.69C148.979 108.427 148.335 108.997 147.505 109.398C146.674 109.799 145.722 110 144.649 110H140.015V100.2ZM144.537 107.788C145.377 107.788 146.049 107.55 146.553 107.074C147.066 106.598 147.323 105.94 147.323 105.1C147.323 104.26 147.066 103.602 146.553 103.126C146.049 102.65 145.377 102.412 144.537 102.412H142.787V107.788H144.537ZM154.381 100.2H157.153V110H154.381V100.2ZM165.369 110.196C164.576 110.196 163.806 110.098 163.059 109.902C162.313 109.706 161.706 109.445 161.239 109.118L162.149 107.074C162.588 107.363 163.097 107.597 163.675 107.774C164.254 107.951 164.823 108.04 165.383 108.04C166.447 108.04 166.979 107.774 166.979 107.242C166.979 106.962 166.825 106.757 166.517 106.626C166.219 106.486 165.733 106.341 165.061 106.192C164.324 106.033 163.708 105.865 163.213 105.688C162.719 105.501 162.294 105.207 161.939 104.806C161.585 104.405 161.407 103.863 161.407 103.182C161.407 102.585 161.571 102.048 161.897 101.572C162.224 101.087 162.709 100.704 163.353 100.424C164.007 100.144 164.805 100.004 165.747 100.004C166.391 100.004 167.026 100.079 167.651 100.228C168.277 100.368 168.827 100.578 169.303 100.858L168.449 102.916C167.516 102.412 166.611 102.16 165.733 102.16C165.183 102.16 164.781 102.244 164.529 102.412C164.277 102.571 164.151 102.781 164.151 103.042C164.151 103.303 164.301 103.499 164.599 103.63C164.898 103.761 165.379 103.896 166.041 104.036C166.788 104.195 167.404 104.367 167.889 104.554C168.384 104.731 168.809 105.021 169.163 105.422C169.527 105.814 169.709 106.351 169.709 107.032C169.709 107.62 169.546 108.152 169.219 108.628C168.893 109.104 168.403 109.487 167.749 109.776C167.096 110.056 166.303 110.196 165.369 110.196ZM181.658 107.858V110H173.79V100.2H181.476V102.342H176.534V103.994H180.888V106.066H176.534V107.858H181.658ZM68.371 117.2C69.2577 117.2 70.0277 117.349 70.681 117.648C71.3344 117.937 71.8384 118.357 72.193 118.908C72.5477 119.449 72.725 120.089 72.725 120.826C72.725 121.563 72.5477 122.203 72.193 122.744C71.8384 123.285 71.3344 123.705 70.681 124.004C70.0277 124.293 69.2577 124.438 68.371 124.438H66.663V127H63.891V117.2H68.371ZM68.203 122.254C68.7724 122.254 69.2017 122.133 69.491 121.89C69.7804 121.638 69.925 121.283 69.925 120.826C69.925 120.369 69.7804 120.014 69.491 119.762C69.2017 119.51 68.7724 119.384 68.203 119.384H66.663V122.254H68.203ZM76.8766 117.2H79.6486V124.802H84.3246V127H76.8766V117.2ZM94.8969 125.096H90.7529L89.9829 127H87.1549L91.4809 117.2H94.2109L98.5509 127H95.6669L94.8969 125.096ZM94.0849 123.052L92.8249 119.916L91.5649 123.052H94.0849ZM111.461 117.2V127H109.179L104.853 121.778V127H102.137V117.2H104.419L108.745 122.422V117.2H111.461ZM125.54 117.2V127H123.258L118.932 121.778V127H116.216V117.2H118.498L122.824 122.422V117.2H125.54ZM130.295 117.2H133.067V127H130.295V117.2ZM147.163 117.2V127H144.881L140.555 121.778V127H137.839V117.2H140.121L144.447 122.422V117.2H147.163ZM158.485 121.89H160.935V125.95C160.375 126.351 159.731 126.659 159.003 126.874C158.275 127.089 157.547 127.196 156.819 127.196C155.792 127.196 154.868 126.981 154.047 126.552C153.225 126.113 152.581 125.507 152.115 124.732C151.648 123.957 151.415 123.08 151.415 122.1C151.415 121.12 151.648 120.243 152.115 119.468C152.581 118.693 153.23 118.091 154.061 117.662C154.891 117.223 155.829 117.004 156.875 117.004C157.789 117.004 158.611 117.158 159.339 117.466C160.067 117.774 160.673 118.217 161.159 118.796L159.395 120.392C158.732 119.664 157.939 119.3 157.015 119.3C156.175 119.3 155.498 119.557 154.985 120.07C154.471 120.574 154.215 121.251 154.215 122.1C154.215 122.641 154.331 123.127 154.565 123.556C154.798 123.976 155.125 124.307 155.545 124.55C155.965 124.783 156.445 124.9 156.987 124.9C157.519 124.9 158.018 124.793 158.485 124.578V121.89Z" fill="white"/>
<path id="assortment plann&#196;&#177;ng" d="M369.583 107.096H365.439L364.669 109H361.841L366.167 99.2H368.897L373.237 109H370.353L369.583 107.096ZM368.771 105.052L367.511 101.916L366.251 105.052H368.771ZM380.267 109.196C379.474 109.196 378.704 109.098 377.957 108.902C377.211 108.706 376.604 108.445 376.137 108.118L377.047 106.074C377.486 106.363 377.995 106.597 378.573 106.774C379.152 106.951 379.721 107.04 380.281 107.04C381.345 107.04 381.877 106.774 381.877 106.242C381.877 105.962 381.723 105.757 381.415 105.626C381.117 105.486 380.631 105.341 379.959 105.192C379.222 105.033 378.606 104.865 378.111 104.688C377.617 104.501 377.192 104.207 376.837 103.806C376.483 103.405 376.305 102.863 376.305 102.182C376.305 101.585 376.469 101.048 376.795 100.572C377.122 100.087 377.607 99.704 378.251 99.424C378.905 99.144 379.703 99.004 380.645 99.004C381.289 99.004 381.924 99.0787 382.549 99.228C383.175 99.368 383.725 99.578 384.201 99.858L383.347 101.916C382.414 101.412 381.509 101.16 380.631 101.16C380.081 101.16 379.679 101.244 379.427 101.412C379.175 101.571 379.049 101.781 379.049 102.042C379.049 102.303 379.199 102.499 379.497 102.63C379.796 102.761 380.277 102.896 380.939 103.036C381.686 103.195 382.302 103.367 382.787 103.554C383.282 103.731 383.707 104.021 384.061 104.422C384.425 104.814 384.607 105.351 384.607 106.032C384.607 106.62 384.444 107.152 384.117 107.628C383.791 108.104 383.301 108.487 382.647 108.776C381.994 109.056 381.201 109.196 380.267 109.196ZM392.132 109.196C391.338 109.196 390.568 109.098 389.822 108.902C389.075 108.706 388.468 108.445 388.002 108.118L388.912 106.074C389.35 106.363 389.859 106.597 390.438 106.774C391.016 106.951 391.586 107.04 392.146 107.04C393.21 107.04 393.742 106.774 393.742 106.242C393.742 105.962 393.588 105.757 393.28 105.626C392.981 105.486 392.496 105.341 391.824 105.192C391.086 105.033 390.47 104.865 389.976 104.688C389.481 104.501 389.056 104.207 388.702 103.806C388.347 103.405 388.17 102.863 388.17 102.182C388.17 101.585 388.333 101.048 388.66 100.572C388.986 100.087 389.472 99.704 390.116 99.424C390.769 99.144 391.567 99.004 392.51 99.004C393.154 99.004 393.788 99.0787 394.414 99.228C395.039 99.368 395.59 99.578 396.066 99.858L395.212 101.916C394.278 101.412 393.373 101.16 392.496 101.16C391.945 101.16 391.544 101.244 391.292 101.412C391.04 101.571 390.914 101.781 390.914 102.042C390.914 102.303 391.063 102.499 391.362 102.63C391.66 102.761 392.141 102.896 392.804 103.036C393.55 103.195 394.166 103.367 394.652 103.554C395.146 103.731 395.571 104.021 395.926 104.422C396.29 104.814 396.472 105.351 396.472 106.032C396.472 106.62 396.308 107.152 395.982 107.628C395.655 108.104 395.165 108.487 394.512 108.776C393.858 109.056 393.065 109.196 392.132 109.196ZM405.494 109.196C404.458 109.196 403.525 108.977 402.694 108.538C401.873 108.099 401.224 107.493 400.748 106.718C400.281 105.943 400.048 105.071 400.048 104.1C400.048 103.129 400.281 102.257 400.748 101.482C401.224 100.707 401.873 100.101 402.694 99.662C403.525 99.2233 404.458 99.004 405.494 99.004C406.53 99.004 407.459 99.2233 408.28 99.662C409.111 100.101 409.759 100.707 410.226 101.482C410.702 102.257 410.94 103.129 410.94 104.1C410.94 105.071 410.702 105.943 410.226 106.718C409.759 107.493 409.111 108.099 408.28 108.538C407.459 108.977 406.53 109.196 405.494 109.196ZM405.494 106.9C405.989 106.9 406.437 106.783 406.838 106.55C407.239 106.317 407.557 105.99 407.79 105.57C408.023 105.141 408.14 104.651 408.14 104.1C408.14 103.549 408.023 103.064 407.79 102.644C407.557 102.215 407.239 101.883 406.838 101.65C406.437 101.417 405.989 101.3 405.494 101.3C404.999 101.3 404.551 101.417 404.15 101.65C403.749 101.883 403.431 102.215 403.198 102.644C402.965 103.064 402.848 103.549 402.848 104.1C402.848 104.651 402.965 105.141 403.198 105.57C403.431 105.99 403.749 106.317 404.15 106.55C404.551 106.783 404.999 106.9 405.494 106.9ZM419.476 106.396H417.964V109H415.192V99.2H419.672C420.559 99.2 421.329 99.3493 421.982 99.648C422.635 99.9373 423.139 100.357 423.494 100.908C423.849 101.449 424.026 102.089 424.026 102.826C424.026 103.535 423.858 104.156 423.522 104.688C423.195 105.211 422.724 105.621 422.108 105.92L424.222 109H421.254L419.476 106.396ZM421.226 102.826C421.226 102.369 421.081 102.014 420.792 101.762C420.503 101.51 420.073 101.384 419.504 101.384H417.964V104.254H419.504C420.073 104.254 420.503 104.133 420.792 103.89C421.081 103.638 421.226 103.283 421.226 102.826ZM430.305 101.398H427.295V99.2H436.073V101.398H433.077V109H430.305V101.398ZM448.753 109L448.725 103.806L446.205 108.034H444.973L442.467 103.946V109H439.905V99.2H442.187L445.631 104.856L448.991 99.2H451.273L451.301 109H448.753ZM463.931 106.858V109H456.063V99.2H463.749V101.342H458.807V102.994H463.161V105.066H458.807V106.858H463.931ZM477.593 99.2V109H475.311L470.985 103.778V109H468.269V99.2H470.551L474.877 104.422V99.2H477.593ZM484.434 101.398H481.424V99.2H490.202V101.398H487.206V109H484.434V101.398ZM382.206 116.2C383.092 116.2 383.862 116.349 384.516 116.648C385.169 116.937 385.673 117.357 386.028 117.908C386.382 118.449 386.56 119.089 386.56 119.826C386.56 120.563 386.382 121.203 386.028 121.744C385.673 122.285 385.169 122.705 384.516 123.004C383.862 123.293 383.092 123.438 382.206 123.438H380.498V126H377.726V116.2H382.206ZM382.038 121.254C382.607 121.254 383.036 121.133 383.326 120.89C383.615 120.638 383.76 120.283 383.76 119.826C383.76 119.369 383.615 119.014 383.326 118.762C383.036 118.51 382.607 118.384 382.038 118.384H380.498V121.254H382.038ZM390.711 116.2H393.483V123.802H398.159V126H390.711V116.2ZM408.731 124.096H404.587L403.817 126H400.989L405.315 116.2H408.045L412.385 126H409.501L408.731 124.096ZM407.919 122.052L406.659 118.916L405.399 122.052H407.919ZM425.295 116.2V126H423.013L418.687 120.778V126H415.971V116.2H418.253L422.579 121.422V116.2H425.295ZM439.375 116.2V126H437.093L432.767 120.778V126H430.051V116.2H432.333L436.659 121.422V116.2H439.375ZM444.13 116.2H446.902V126H444.13V116.2ZM460.998 116.2V126H458.716L454.39 120.778V126H451.674V116.2H453.956L458.282 121.422V116.2H460.998ZM472.319 120.89H474.769V124.95C474.209 125.351 473.565 125.659 472.837 125.874C472.109 126.089 471.381 126.196 470.653 126.196C469.627 126.196 468.703 125.981 467.881 125.552C467.06 125.113 466.416 124.507 465.949 123.732C465.483 122.957 465.249 122.08 465.249 121.1C465.249 120.12 465.483 119.243 465.949 118.468C466.416 117.693 467.065 117.091 467.895 116.662C468.726 116.223 469.664 116.004 470.709 116.004C471.624 116.004 472.445 116.158 473.173 116.466C473.901 116.774 474.508 117.217 474.993 117.796L473.229 119.392C472.567 118.664 471.773 118.3 470.849 118.3C470.009 118.3 469.333 118.557 468.819 119.07C468.306 119.574 468.049 120.251 468.049 121.1C468.049 121.641 468.166 122.127 468.399 122.556C468.633 122.976 468.959 123.307 469.379 123.55C469.799 123.783 470.28 123.9 470.821 123.9C471.353 123.9 471.853 123.793 472.319 123.578V120.89Z" fill="white"/>
<g id="Vector_4" filter="url(#filter2_d)">
<path d="M205.53 448.426C240.584 483.538 297.416 483.538 332.47 448.426C367.524 413.314 367.524 356.389 332.47 321.277C297.416 286.165 240.584 286.165 205.53 321.277C170.476 356.389 170.476 413.314 205.53 448.426Z" fill="#49BEE3"/>
</g>
<path id="&#196;&#177;tem plann&#196;&#177;ng" d="M247.477 371.2H250.249V381H247.477V371.2ZM257.107 373.398H254.097V371.2H262.875V373.398H259.879V381H257.107V373.398ZM274.576 378.858V381H266.708V371.2H274.394V373.342H269.452V374.994H273.806V377.066H269.452V378.858H274.576ZM287.762 381L287.734 375.806L285.214 380.034H283.982L281.476 375.946V381H278.914V371.2H281.196L284.64 376.856L288 371.2H290.282L290.31 381H287.762ZM224.954 388.2C225.84 388.2 226.61 388.349 227.264 388.648C227.917 388.937 228.421 389.357 228.776 389.908C229.13 390.449 229.308 391.089 229.308 391.826C229.308 392.563 229.13 393.203 228.776 393.744C228.421 394.285 227.917 394.705 227.264 395.004C226.61 395.293 225.84 395.438 224.954 395.438H223.246V398H220.474V388.2H224.954ZM224.786 393.254C225.355 393.254 225.784 393.133 226.074 392.89C226.363 392.638 226.508 392.283 226.508 391.826C226.508 391.369 226.363 391.014 226.074 390.762C225.784 390.51 225.355 390.384 224.786 390.384H223.246V393.254H224.786ZM233.459 388.2H236.231V395.802H240.907V398H233.459V388.2ZM251.48 396.096H247.336L246.566 398H243.738L248.064 388.2H250.794L255.134 398H252.25L251.48 396.096ZM250.668 394.052L249.408 390.916L248.148 394.052H250.668ZM268.043 388.2V398H265.761L261.435 392.778V398H258.719V388.2H261.001L265.327 393.422V388.2H268.043ZM282.123 388.2V398H279.841L275.515 392.778V398H272.799V388.2H275.081L279.407 393.422V388.2H282.123ZM286.878 388.2H289.65V398H286.878V388.2ZM303.746 388.2V398H301.464L297.138 392.778V398H294.422V388.2H296.704L301.03 393.422V388.2H303.746ZM315.068 392.89H317.518V396.95C316.958 397.351 316.314 397.659 315.586 397.874C314.858 398.089 314.13 398.196 313.402 398.196C312.375 398.196 311.451 397.981 310.63 397.552C309.808 397.113 309.164 396.507 308.698 395.732C308.231 394.957 307.998 394.08 307.998 393.1C307.998 392.12 308.231 391.243 308.698 390.468C309.164 389.693 309.813 389.091 310.644 388.662C311.474 388.223 312.412 388.004 313.458 388.004C314.372 388.004 315.194 388.158 315.922 388.466C316.65 388.774 317.256 389.217 317.742 389.796L315.978 391.392C315.315 390.664 314.522 390.3 313.598 390.3C312.758 390.3 312.081 390.557 311.568 391.07C311.054 391.574 310.798 392.251 310.798 393.1C310.798 393.641 310.914 394.127 311.148 394.556C311.381 394.976 311.708 395.307 312.128 395.55C312.548 395.783 313.028 395.9 313.57 395.9C314.102 395.9 314.601 395.793 315.068 395.578V392.89Z" fill="white"/>
</g>
<defs>
<filter id="filter0_d" x="326" y="22" width="200" height="200" filterUnits="userSpaceOnUse" color-interpolation-filters="sRGB">
<feFlood flood-opacity="0" result="BackgroundImageFix"/>
<feColorMatrix in="SourceAlpha" type="matrix" values="0 0 0 0 0 0 0 0 0 0 0 0 0 0 0 0 0 0 127 0"/>
<feOffset dy="10"/>
<feGaussianBlur stdDeviation="5"/>
<feColorMatrix type="matrix" values="0 0 0 0 0.101961 0 0 0 0 0.164706 0 0 0 0 0.243137 0 0 0 0.15 0"/>
<feBlend mode="normal" in2="BackgroundImageFix" result="effect1_dropShadow"/>
<feBlend mode="normal" in="SourceGraphic" in2="effect1_dropShadow" result="shape"/>
</filter>
<filter id="filter1_d" x="12" y="23" width="200" height="200" filterUnits="userSpaceOnUse" color-interpolation-filters="sRGB">
<feFlood flood-opacity="0" result="BackgroundImageFix"/>
<feColorMatrix in="SourceAlpha" type="matrix" values="0 0 0 0 0 0 0 0 0 0 0 0 0 0 0 0 0 0 127 0"/>
<feOffset dy="10"/>
<feGaussianBlur stdDeviation="5"/>
<feColorMatrix type="matrix" values="0 0 0 0 0.101961 0 0 0 0 0.164706 0 0 0 0 0.243137 0 0 0 0.15 0"/>
<feBlend mode="normal" in2="BackgroundImageFix" result="effect1_dropShadow"/>
<feBlend mode="normal" in="SourceGraphic" in2="effect1_dropShadow" result="shape"/>
</filter>
<filter id="filter2_d" x="169.239" y="294.943" width="199.521" height="199.816" filterUnits="userSpaceOnUse" color-interpolation-filters="sRGB">
<feFlood flood-opacity="0" result="BackgroundImageFix"/>
<feColorMatrix in="SourceAlpha" type="matrix" values="0 0 0 0 0 0 0 0 0 0 0 0 0 0 0 0 0 0 127 0"/>
<feOffset dy="10"/>
<feGaussianBlur stdDeviation="5"/>
<feColorMatrix type="matrix" values="0 0 0 0 0.101961 0 0 0 0 0.164706 0 0 0 0 0.243137 0 0 0 0.15 0"/>
<feBlend mode="normal" in2="BackgroundImageFix" result="effect1_dropShadow"/>
<feBlend mode="normal" in="SourceGraphic" in2="effect1_dropShadow" result="shape"/>
</filter>
</defs>
</svg>
