<svg width="540" height="380" viewBox="0 0 540 380" fill="none" xmlns="http://www.w3.org/2000/svg">
<g clip-path="url(#clip0)">
<rect width="540" height="380" fill="white"/>
<path d="M437.752 349.385C437.752 349.385 436.41 371.412 438.4 372.207C440.39 373.002 446.756 371.61 449.144 370.815C451.531 370.02 455.112 370.815 457.3 372.405C459.489 373.995 466.85 378.766 466.85 378.766C466.85 378.766 463.284 380.709 458.201 378.165C457.652 377.89 457.086 377.564 456.505 377.176C450.536 373.201 446.955 376.381 447.751 376.779C448.546 377.176 452.128 377.573 453.52 377.573C454.913 377.573 457.373 377.343 457.82 379.581C457.82 379.581 442.744 380.452 437.861 379.682C432.979 378.911 433.322 379.938 430.58 371.038C427.839 362.138 425.612 353.922 425.612 353.922L437.752 349.385Z" fill="#FFBEB5"/>
<path d="M489.512 226.063L507.169 231.991L516.917 186.768C516.917 186.768 513.009 185.245 509.779 190.252C506.549 195.26 493.495 207.303 493.495 207.303L489.512 226.063Z" fill="#5C6A7C"/>
<path d="M457.989 173.694L476.269 170.117L462.343 126C462.343 126 458.193 126.608 457.866 132.556C457.54 138.505 450.842 155.843 450.842 155.843L457.989 173.694Z" fill="#5C6A7C"/>
<path d="M462.511 184.884C462.511 184.884 462.212 185.083 461.661 185.435C452.017 181.068 443.503 177.246 441.324 176.397C435.666 174.187 425.099 167.804 421.897 177.379C421.061 179.9 419.912 187.087 418.683 196.317C415.096 195.926 413.31 197.956 417.195 208.056C415.057 225.64 412.918 246.065 411.829 256.735C410.494 254.081 384.339 202.083 382.944 192.276C381.503 182.21 392.535 178.129 401.654 174.539C403.062 173.988 405.2 173.159 407.81 172.157C422.163 166.649 450.835 155.84 450.835 155.84L458.765 175.561L462.511 184.884Z" fill="#19293E"/>
<path d="M495.169 200.717L489.51 227C485.824 227.246 480.172 224.545 475.004 220.119C469.844 215.7 467.141 216.682 460.991 216.927C454.847 217.173 450.915 212.017 447.96 210.789C445.011 209.562 445.748 218.401 447.96 225.282C449.726 230.783 449.142 241.791 448.836 245.972C445.097 246.901 438.887 248.878 433.182 252.72C424.255 258.739 419.062 260.398 413.25 262.262C412.606 262.468 411.922 262.674 411.204 262.886C412.187 253.065 418.942 186.251 421.898 177.379C425.099 167.804 435.666 174.187 441.325 176.397C446.977 178.607 495.169 200.717 495.169 200.717Z" fill="#19293E"/>
<path d="M539.715 258.962L538.606 260.348C538.168 260.674 537.59 261.045 536.959 261.423C534.521 262.897 529.812 263.56 526.97 263.321C520.66 262.797 515.559 258.285 512.823 258.53C510.478 258.749 500.562 264.595 494.445 268.325L488.667 256.579C497.594 253.507 510.445 250.11 514.55 248.351C522.234 245.06 528.338 243.965 528.338 243.965C530.762 248.292 521.836 248.51 522.115 250.302C522.394 252.094 522.141 252.041 529.925 253.719C538.619 255.591 540.884 257.455 539.715 258.962Z" fill="#FFBEB5"/>
<path d="M499.831 279.276C499.831 279.276 491.941 286.947 479.481 288.194C467.021 289.442 449.753 303.297 449.753 303.297C449.753 303.297 448.185 301.134 444.22 302.215C444.034 302.268 443.848 302.322 443.676 302.388C443.363 302.494 443.071 302.613 442.799 302.753C442.36 302.965 441.975 303.204 441.643 303.463C441.544 303.536 441.451 303.615 441.358 303.688C441.258 303.775 441.165 303.861 441.072 303.947C440.979 304.034 440.893 304.12 440.813 304.206C440.295 304.757 439.956 305.308 439.737 305.732C439.73 305.752 439.717 305.765 439.717 305.785C439.697 305.812 439.69 305.832 439.677 305.858C439.664 305.885 439.657 305.905 439.651 305.931C439.505 306.276 439.491 306.668 439.611 307.033C439.624 307.086 439.644 307.139 439.664 307.192L441.577 312.069C441.411 312.209 441.258 312.341 441.105 312.487C440.959 312.627 440.82 312.766 440.687 312.905C437.439 316.323 438.555 320.112 438.209 320.716C437.419 322.102 435.334 323.35 436.503 324.325C436.947 324.697 438.103 325.241 439.345 325.772L439.133 328.944L439.126 329.03L438.442 339.163L438.309 341.1L438.189 342.859V342.905L437.891 347.331L437.884 347.411L437.751 349.388L415.116 357.895C415.116 357.895 410.553 354.571 412.832 343.164C415.116 331.757 421.552 310.39 413.456 297.113C405.36 283.841 393.318 281.346 395.603 273.675C397.888 265.998 407.439 264.133 413.25 262.262C419.061 260.397 424.255 258.739 433.182 252.72C442.108 246.708 452.283 245.255 452.283 245.255L452.695 268.486C452.695 268.486 455.398 268.692 465.573 262.68C475.742 256.662 487.995 255.215 487.995 255.215L499.831 279.276Z" fill="#F7C242"/>
<path d="M441.576 312.064L439.667 307.191C439.481 306.715 439.508 306.185 439.739 305.729C440.261 304.695 441.513 302.95 444.222 302.212C448.19 301.13 449.753 303.294 449.753 303.294C449.753 303.294 450.214 307.002 451.08 309.68" fill="url(#paint0_linear)"/>
<path d="M441.576 312.064C437.242 315.663 438.583 320.053 438.208 320.714C437.422 322.102 435.336 323.347 436.503 324.321C437.65 325.278 443.55 327.426 443.55 327.426C445.955 320.457 452.88 317.831 454.203 317.711C455.526 317.591 457.186 317.57 457.494 315.587C457.9 312.964 454.082 313.146 452.399 312.064C451.887 311.736 451.442 310.798 451.071 309.651C451.07 309.651 445.209 309.047 441.576 312.064Z" fill="#FFBEB5"/>
<path d="M463.395 328.808C457.132 332.65 453.287 334.216 453.718 338.768L445.888 344.03C445.888 344.03 440.913 335.384 443.557 327.408C443.596 327.428 443.557 327.408 443.557 327.408C445.968 320.44 452.882 317.833 454.203 317.713C455.525 317.594 457.397 317.425 457.51 315.3C457.634 312.977 454.084 313.148 452.397 312.066C451.779 311.675 451.261 310.387 450.849 308.914C450.82 308.796 450.802 308.74 450.777 308.649C450.777 308.649 459.835 303.918 465.388 310.46C470.94 317.003 469.658 324.966 463.395 328.808Z" fill="#19293E"/>
<path d="M442.522 325.234C441.708 323.891 443.12 322.319 444.54 323.031C444.73 323.126 444.898 322.84 444.707 322.744C443.959 322.37 443.011 322.475 442.426 323.102C441.843 323.727 441.803 324.689 442.234 325.402C442.346 325.584 442.633 325.417 442.522 325.234Z" fill="#1C2868"/>
<path d="M202.34 312.199L210.088 322.321L182.985 338.684C182.985 338.684 181.133 336.491 183.659 333.286C186.184 330.081 191.133 318.666 191.133 318.666L202.34 312.199Z" fill="#49BEE3"/>
<path d="M248.366 241.801L260.277 236.555L270 266.728C270 266.728 267.447 268.035 264.908 264.841C262.369 261.647 251.496 254.19 251.496 254.19L248.366 241.801Z" fill="#49BEE3"/>
<path d="M202.34 312.197L191.133 318.664C191.133 318.664 173.81 274.932 172.963 266.085C172.115 257.239 172.793 246.688 173.98 238.007C175.172 229.33 177.377 222.013 175.681 214.186L175.978 214.149C182.188 215.02 190.486 213.14 194.153 212.153C194.921 211.946 195.695 211.813 196.463 211.739C197.068 212.742 201.561 221.111 195.208 240.051C188.414 260.298 193.512 263.192 195.716 269.319C197.926 275.442 199.113 279.185 198.604 284.973C198.096 290.761 200.639 289.226 202.001 296.713C203.357 304.2 202.34 312.197 202.34 312.197Z" fill="#EEEEEE"/>
<path d="M251.499 254.191C251.499 254.191 203.977 270.477 193.141 263.611C191.445 259.427 190.64 253.66 195.208 240.051C195.992 237.72 196.607 235.553 197.089 233.536C197.094 233.53 197.094 233.53 197.094 233.525C197.158 233.397 197.189 233.334 197.189 233.334C197.189 233.334 199.071 243.837 208.927 242.584C218.788 241.33 218.475 241.017 223.483 242.43C228.49 243.837 231.935 240.391 234.595 240.077C237.255 239.764 246.173 239.291 248.367 241.803L251.499 254.191Z" fill="url(#paint1_linear)"/>
<path d="M219.525 174.192C212.201 184.769 206.669 190.058 206.585 201.15C206.5 212.238 205.387 212.854 205.387 212.854C205.387 212.854 199.601 210.698 194.153 212.153C189.368 213.438 176.704 216.247 171.087 212.492C165.465 208.744 161.803 205.074 160.786 200.981L166.694 195.41C167.664 196.218 168.204 196.828 168.692 197.837C168.692 197.837 179.549 192.979 184.09 185.497C188.632 178.015 190.317 173.996 190.317 173.996C190.317 173.996 189.644 178.031 191.43 177.776C193.221 177.516 196.57 173.088 196.57 173.088C196.57 173.088 200.115 174.702 202.923 167.369C205.731 160.031 206.076 154.657 205.816 153.292L224.49 154.492C224.49 154.492 226.848 163.615 219.525 174.192Z" fill="#49BEE3"/>
<path d="M213.117 153.76C213.117 153.76 218.605 139.919 215.58 133.771C212.554 127.622 210.284 123.579 210.284 123.579C210.284 123.579 211.797 122.569 213.142 124.59C214.487 126.611 215.412 127.79 215.663 126.611C215.916 125.432 217.008 116.589 217.344 115.662C217.68 114.736 218.689 114.652 218.941 116.252C219.193 117.852 217.979 123.012 219.155 122.002C220.332 120.991 221.63 116.083 221.883 115.831C222.135 115.578 225.581 118.442 226.59 121.221C227.598 124 224.909 128.212 223.228 130.739C221.547 133.266 222.387 137.476 224.488 154.49L213.117 153.76Z" fill="#FFBEB5"/>
<path d="M161.687 191.439C164.145 193.462 165.666 194.545 166.694 195.41L160.929 200.848C154.983 203.078 147.136 205.595 144.809 207.129C140.856 209.742 137.158 213.029 137.158 213.029C135.393 210.246 141.111 206.37 140.856 205.191C140.607 204.012 139.595 203.848 133.713 203.593C127.831 203.338 127.328 201.065 128.589 200.981C129.845 200.896 134.641 201.57 135.059 200.816C135.478 200.057 128.001 200.816 129.093 199.887C129.368 199.653 129.734 199.382 130.137 199.111C131.7 198.044 133.66 197.757 135.467 198.304C139.341 199.467 144.523 200.742 146.32 200.476C148.46 200.163 159.737 191.789 161.019 190.833C161.236 191.051 161.459 191.253 161.687 191.439Z" fill="#FFBEB5"/>
<path d="M205.883 155.118C205.868 155.09 205.878 155.056 205.905 155.04C205.934 155.025 205.968 155.035 205.983 155.063C205.999 155.09 205.989 155.125 205.961 155.141C205.934 155.157 205.899 155.146 205.883 155.118ZM208.588 153.858C208.607 153.834 208.603 153.797 208.579 153.778C208.554 153.758 208.518 153.762 208.499 153.787C208.479 153.812 208.483 153.848 208.508 153.867C208.532 153.887 208.568 153.883 208.588 153.858ZM205.966 157.322C205.999 157.305 206.012 157.266 205.996 157.233C205.98 157.2 205.94 157.188 205.908 157.203C205.875 157.219 205.861 157.259 205.878 157.292C205.894 157.325 205.934 157.338 205.966 157.322ZM206.563 153.808C206.587 153.781 206.584 153.739 206.557 153.715C206.53 153.691 206.488 153.694 206.464 153.721C206.44 153.749 206.443 153.791 206.47 153.815C206.497 153.839 206.539 153.836 206.563 153.808ZM207.759 154.858C207.783 154.83 207.78 154.789 207.753 154.765C207.726 154.741 207.683 154.743 207.659 154.77C207.636 154.798 207.639 154.84 207.666 154.863C207.693 154.888 207.735 154.885 207.759 154.858ZM208.954 155.907C208.979 155.88 208.976 155.838 208.949 155.814C208.921 155.791 208.88 155.793 208.856 155.82C208.832 155.848 208.835 155.89 208.862 155.914C208.89 155.938 208.931 155.935 208.954 155.907ZM205.551 159.744C205.59 159.729 205.61 159.684 205.595 159.646C205.58 159.606 205.536 159.588 205.496 159.603C205.457 159.618 205.438 159.662 205.453 159.701C205.468 159.741 205.512 159.759 205.551 159.744ZM208.937 154.064C208.954 154.026 208.936 153.981 208.898 153.964C208.86 153.947 208.816 153.964 208.798 154.003C208.782 154.041 208.799 154.087 208.837 154.103C208.875 154.12 208.92 154.103 208.937 154.064ZM210.614 154.803C210.631 154.764 210.613 154.72 210.575 154.702C210.537 154.685 210.493 154.703 210.475 154.741C210.458 154.78 210.475 154.825 210.514 154.841C210.553 154.859 210.597 154.841 210.614 154.803ZM206.548 155.812C206.578 155.783 206.578 155.735 206.55 155.705C206.521 155.674 206.473 155.673 206.443 155.702C206.413 155.732 206.411 155.779 206.441 155.81C206.469 155.84 206.517 155.842 206.548 155.812ZM207.815 157.138C207.845 157.108 207.846 157.06 207.817 157.03C207.788 157 207.739 156.999 207.709 157.028C207.679 157.057 207.679 157.105 207.708 157.136C207.736 157.165 207.785 157.166 207.815 157.138ZM209.082 158.462C209.112 158.434 209.113 158.385 209.084 158.355C209.055 158.325 209.007 158.324 208.977 158.353C208.947 158.382 208.946 158.43 208.975 158.461C209.004 158.491 209.051 158.492 209.082 158.462ZM206.129 154.031C206.143 153.998 206.129 153.959 206.096 153.944C206.063 153.929 206.025 153.944 206.01 153.977C205.995 154.01 206.01 154.049 206.043 154.064C206.076 154.078 206.114 154.063 206.129 154.031ZM207.565 154.679C207.58 154.646 207.565 154.606 207.533 154.592C207.5 154.577 207.461 154.592 207.446 154.626C207.432 154.658 207.446 154.697 207.479 154.712C207.512 154.726 207.55 154.711 207.565 154.679ZM209.002 155.326C209.016 155.294 209.002 155.254 208.969 155.24C208.936 155.225 208.898 155.24 208.883 155.273C208.868 155.306 208.883 155.344 208.916 155.359C208.948 155.374 208.987 155.359 209.002 155.326ZM206.696 157.367C206.723 157.342 206.724 157.3 206.699 157.274C206.674 157.248 206.632 157.247 206.606 157.271C206.581 157.296 206.579 157.337 206.604 157.364C206.628 157.39 206.67 157.391 206.696 157.367ZM207.775 158.516C207.801 158.491 207.803 158.45 207.778 158.423C207.753 158.397 207.712 158.396 207.686 158.421C207.659 158.445 207.658 158.486 207.683 158.513C207.708 158.539 207.749 158.541 207.775 158.516ZM205.877 158.785C205.892 158.757 205.881 158.721 205.852 158.707C205.823 158.692 205.789 158.704 205.774 158.732C205.759 158.761 205.77 158.796 205.799 158.81C205.828 158.826 205.863 158.814 205.877 158.785ZM207.132 159.428C207.147 159.399 207.135 159.364 207.107 159.349C207.078 159.334 207.043 159.346 207.028 159.374C207.013 159.403 207.025 159.438 207.054 159.453C207.082 159.468 207.117 159.456 207.132 159.428ZM206.18 154.427C206.17 154.397 206.138 154.38 206.107 154.39C206.076 154.4 206.06 154.433 206.069 154.464C206.079 154.494 206.112 154.511 206.142 154.501C206.174 154.492 206.191 154.458 206.18 154.427ZM207.522 153.993C207.512 153.962 207.479 153.945 207.448 153.955C207.417 153.966 207.401 153.998 207.41 154.029C207.42 154.06 207.453 154.077 207.483 154.067C207.515 154.057 207.531 154.023 207.522 153.993ZM205.787 162.215C205.812 162.194 205.815 162.157 205.794 162.133C205.773 162.108 205.736 162.105 205.711 162.126C205.687 162.147 205.684 162.184 205.705 162.209C205.726 162.233 205.763 162.236 205.787 162.215ZM207.104 156.77C207.106 156.737 207.082 156.709 207.05 156.707C207.018 156.704 206.989 156.728 206.987 156.761C206.984 156.793 207.009 156.821 207.041 156.823C207.072 156.826 207.101 156.802 207.104 156.77ZM208.508 156.882C208.51 156.85 208.487 156.822 208.454 156.819C208.422 156.817 208.394 156.841 208.392 156.873C208.389 156.905 208.413 156.933 208.445 156.936C208.478 156.939 208.506 156.915 208.508 156.882ZM206.406 161.784C206.432 161.75 206.426 161.703 206.393 161.677C206.36 161.65 206.312 161.656 206.286 161.689C206.26 161.723 206.266 161.771 206.299 161.797C206.331 161.823 206.379 161.817 206.406 161.784ZM207.854 162.927C207.88 162.893 207.874 162.845 207.842 162.819C207.808 162.793 207.761 162.799 207.734 162.832C207.708 162.865 207.714 162.914 207.747 162.939C207.78 162.966 207.828 162.959 207.854 162.927ZM206.063 156.486C206.058 156.443 206.02 156.413 205.979 156.418C205.937 156.423 205.907 156.461 205.911 156.504C205.917 156.546 205.954 156.576 205.996 156.571C206.038 156.565 206.068 156.527 206.063 156.486ZM207.894 156.267C207.889 156.225 207.851 156.195 207.809 156.2C207.767 156.205 207.738 156.243 207.743 156.285C207.747 156.327 207.786 156.358 207.827 156.352C207.869 156.347 207.899 156.309 207.894 156.267ZM209.725 156.049C209.72 156.007 209.681 155.977 209.64 155.981C209.598 155.986 209.569 156.024 209.573 156.067C209.578 156.109 209.616 156.139 209.658 156.134C209.7 156.129 209.73 156.091 209.725 156.049ZM204.553 164.603C204.589 164.582 204.602 164.535 204.582 164.499C204.561 164.462 204.514 164.448 204.477 164.47C204.441 164.49 204.428 164.536 204.448 164.574C204.469 164.61 204.516 164.624 204.553 164.603ZM205.454 166.214C205.491 166.194 205.504 166.147 205.483 166.11C205.462 166.074 205.416 166.06 205.38 166.081C205.343 166.102 205.33 166.149 205.351 166.185C205.371 166.222 205.417 166.235 205.454 166.214ZM206.742 159.057C206.753 159.016 206.729 158.974 206.688 158.963C206.648 158.951 206.605 158.975 206.594 159.015C206.583 159.056 206.607 159.098 206.647 159.11C206.688 159.122 206.73 159.098 206.742 159.057ZM208.517 159.558C208.528 159.517 208.504 159.475 208.464 159.463C208.423 159.452 208.381 159.476 208.369 159.516C208.358 159.557 208.382 159.599 208.422 159.61C208.463 159.622 208.505 159.599 208.517 159.558ZM210.291 160.059C210.303 160.018 210.279 159.975 210.238 159.964C210.198 159.952 210.156 159.976 210.144 160.017C210.132 160.057 210.156 160.1 210.197 160.111C210.238 160.123 210.28 160.099 210.291 160.059ZM206.151 154.085C206.131 154.048 206.084 154.036 206.047 154.056C206.011 154.076 205.998 154.123 206.018 154.16C206.039 154.196 206.086 154.21 206.122 154.189C206.159 154.168 206.172 154.122 206.151 154.085ZM204.646 163.833C204.672 163.813 204.676 163.776 204.656 163.751C204.636 163.726 204.6 163.721 204.574 163.741C204.549 163.761 204.545 163.798 204.564 163.823C204.584 163.848 204.621 163.853 204.646 163.833ZM205.88 158.91C205.884 158.878 205.861 158.849 205.83 158.844C205.797 158.84 205.769 158.863 205.765 158.895C205.761 158.927 205.784 158.956 205.815 158.96C205.847 158.964 205.876 158.941 205.88 158.91ZM207.275 159.08C207.279 159.048 207.256 159.019 207.224 159.015C207.193 159.011 207.164 159.034 207.16 159.066C207.156 159.098 207.179 159.127 207.211 159.13C207.242 159.135 207.271 159.112 207.275 159.08ZM205.746 161.459C205.762 161.431 205.752 161.395 205.724 161.379C205.696 161.364 205.66 161.373 205.644 161.402C205.628 161.43 205.638 161.465 205.666 161.481C205.695 161.497 205.73 161.487 205.746 161.459ZM206.969 162.152C206.985 162.124 206.975 162.088 206.947 162.072C206.919 162.056 206.884 162.066 206.868 162.094C206.852 162.123 206.862 162.158 206.89 162.174C206.919 162.19 206.954 162.179 206.969 162.152ZM206.339 156.6C206.33 156.569 206.298 156.551 206.267 156.56C206.236 156.568 206.218 156.601 206.227 156.632C206.235 156.662 206.267 156.68 206.299 156.672C206.329 156.664 206.347 156.631 206.339 156.6ZM207.692 156.223C207.684 156.192 207.651 156.174 207.621 156.182C207.589 156.191 207.572 156.223 207.58 156.254C207.589 156.285 207.621 156.303 207.652 156.294C207.683 156.286 207.701 156.255 207.692 156.223ZM205.678 162.921C205.699 162.889 205.69 162.846 205.657 162.825C205.626 162.804 205.583 162.813 205.562 162.845C205.541 162.878 205.55 162.921 205.582 162.941C205.614 162.963 205.657 162.954 205.678 162.921ZM207.084 163.836C207.105 163.804 207.096 163.761 207.064 163.74C207.031 163.719 206.989 163.728 206.967 163.761C206.947 163.793 206.956 163.836 206.988 163.857C207.02 163.878 207.063 163.868 207.084 163.836ZM206.572 157.804C206.564 157.766 206.527 157.742 206.489 157.75C206.452 157.758 206.428 157.794 206.436 157.833C206.444 157.87 206.48 157.895 206.518 157.886C206.556 157.878 206.579 157.841 206.572 157.804ZM208.211 157.455C208.203 157.417 208.165 157.393 208.128 157.401C208.091 157.409 208.067 157.446 208.075 157.484C208.083 157.522 208.12 157.545 208.157 157.537C208.195 157.529 208.219 157.492 208.211 157.455ZM204.233 165.627C204.265 165.605 204.272 165.562 204.251 165.531C204.229 165.499 204.185 165.491 204.154 165.512C204.122 165.534 204.114 165.577 204.136 165.609C204.158 165.64 204.201 165.649 204.233 165.627ZM205.182 167.011C205.213 166.989 205.221 166.946 205.2 166.914C205.178 166.883 205.135 166.875 205.103 166.897C205.072 166.919 205.063 166.962 205.085 166.993C205.107 167.025 205.15 167.033 205.182 167.011ZM205.759 160.425C205.766 160.387 205.741 160.351 205.702 160.344C205.665 160.336 205.629 160.362 205.622 160.4C205.615 160.437 205.64 160.474 205.678 160.481C205.715 160.488 205.751 160.463 205.759 160.425ZM207.407 160.731C207.414 160.694 207.389 160.657 207.351 160.65C207.314 160.643 207.277 160.668 207.27 160.706C207.262 160.744 207.288 160.78 207.326 160.787C207.363 160.795 207.399 160.769 207.407 160.731ZM209.054 161.038C209.061 161 209.036 160.963 208.998 160.957C208.961 160.949 208.925 160.974 208.918 161.012C208.91 161.05 208.936 161.086 208.973 161.094C209.011 161.1 209.047 161.075 209.054 161.038ZM206.196 155.021C206.174 154.989 206.131 154.981 206.099 155.004C206.068 155.025 206.059 155.069 206.081 155.101C206.103 155.132 206.147 155.14 206.178 155.118C206.209 155.097 206.218 155.053 206.196 155.021ZM207.577 154.071C207.556 154.039 207.512 154.031 207.48 154.053C207.449 154.075 207.441 154.117 207.463 154.149C207.485 154.181 207.528 154.189 207.559 154.167C207.591 154.145 207.599 154.102 207.577 154.071ZM204.141 164.741C204.169 164.709 204.166 164.661 204.135 164.633C204.103 164.606 204.055 164.609 204.027 164.641C203.999 164.672 204.003 164.721 204.034 164.748C204.066 164.775 204.114 164.772 204.141 164.741ZM205.522 165.952C205.55 165.92 205.547 165.872 205.515 165.844C205.484 165.817 205.436 165.82 205.408 165.852C205.38 165.883 205.383 165.931 205.415 165.959C205.447 165.987 205.495 165.983 205.522 165.952ZM206.904 167.163C206.932 167.131 206.928 167.083 206.897 167.056C206.865 167.028 206.817 167.031 206.789 167.063C206.762 167.095 206.765 167.143 206.797 167.171C206.828 167.198 206.876 167.195 206.904 167.163ZM205.455 160.667C205.452 160.625 205.416 160.593 205.374 160.596C205.332 160.599 205.301 160.635 205.303 160.677C205.306 160.719 205.342 160.752 205.384 160.748C205.426 160.745 205.458 160.709 205.455 160.667ZM207.286 160.545C207.283 160.503 207.247 160.471 207.205 160.474C207.163 160.477 207.132 160.513 207.135 160.555C207.137 160.597 207.173 160.628 207.215 160.626C207.257 160.623 207.289 160.587 207.286 160.545ZM209.117 160.422C209.114 160.38 209.078 160.349 209.036 160.351C208.994 160.354 208.963 160.391 208.965 160.432C208.968 160.474 209.004 160.506 209.046 160.503C209.089 160.501 209.12 160.465 209.117 160.422ZM206.119 153.484C206.087 153.456 206.039 153.459 206.012 153.491C205.984 153.523 205.988 153.57 206.019 153.599C206.051 153.626 206.099 153.623 206.126 153.592C206.154 153.559 206.151 153.512 206.119 153.484ZM203.642 168.652C203.68 168.633 203.695 168.587 203.677 168.55C203.658 168.512 203.612 168.496 203.574 168.515C203.537 168.534 203.521 168.579 203.54 168.618C203.559 168.654 203.605 168.67 203.642 168.652ZM204.456 170.3C204.494 170.281 204.509 170.236 204.491 170.198C204.472 170.16 204.426 170.145 204.389 170.164C204.351 170.183 204.335 170.228 204.354 170.266C204.373 170.303 204.418 170.318 204.456 170.3ZM206.105 163.252C206.118 163.212 206.097 163.169 206.056 163.155C206.017 163.142 205.974 163.163 205.96 163.203C205.947 163.243 205.968 163.287 206.008 163.3C206.048 163.313 206.091 163.292 206.105 163.252ZM207.843 163.841C207.857 163.802 207.835 163.758 207.796 163.744C207.756 163.732 207.712 163.752 207.699 163.792C207.686 163.832 207.707 163.875 207.747 163.889C207.787 163.902 207.83 163.881 207.843 163.841ZM209.581 164.43C209.595 164.39 209.573 164.347 209.534 164.334C209.494 164.32 209.451 164.342 209.438 164.381C209.424 164.421 209.446 164.464 209.485 164.478C209.525 164.491 209.568 164.47 209.581 164.43ZM205.774 158.279C205.755 158.241 205.709 158.226 205.672 158.244C205.635 158.263 205.619 158.308 205.638 158.346C205.656 158.384 205.702 158.4 205.74 158.381C205.777 158.362 205.793 158.316 205.774 158.279ZM207.419 157.463C207.4 157.425 207.355 157.41 207.317 157.429C207.279 157.447 207.264 157.493 207.283 157.531C207.301 157.568 207.347 157.584 207.384 157.566C207.422 157.547 207.437 157.501 207.419 157.463ZM209.064 156.649C209.045 156.611 208.999 156.596 208.962 156.614C208.924 156.633 208.909 156.678 208.927 156.716C208.946 156.754 208.992 156.769 209.03 156.751C209.067 156.731 209.082 156.686 209.064 156.649Z" fill="white"/>
<path d="M196.296 159.83C196.296 159.83 193.787 155.8 187.552 157.574C181.316 159.348 179.251 167.841 183.164 170.61C186.923 173.27 188.468 174.141 188.468 174.141C188.468 174.141 183.01 175.856 178.084 174.776C173.157 173.696 161.841 170.379 154.22 177.861C154.22 177.861 156.914 187.504 161.687 191.438C166.46 195.372 167.691 195.757 168.692 197.84C168.692 197.84 179.546 192.98 184.088 185.498C188.63 178.016 190.316 173.994 190.316 173.994C190.316 173.994 190.551 173.486 190.583 173.054C190.583 173.054 190.608 171.615 189.469 171.213C187.849 170.641 188.434 170.94 187.489 170.624C186.543 170.308 185.485 168.693 186.482 167.587C187.48 166.482 188.321 166.903 189.213 166.64C190.107 166.376 194.395 165.126 196.296 159.83Z" fill="#19293E"/>
<path d="M196.57 173.087C196.57 173.087 196.559 173.103 196.533 173.14C196.151 173.634 193.109 177.537 191.43 177.776C189.739 178.015 190.253 174.415 190.312 174.027C190.317 174.006 190.317 173.995 190.317 173.995C190.317 173.995 190.317 173.995 190.322 173.99C190.343 173.932 190.55 173.459 190.582 173.05C190.582 173.05 190.587 172.902 190.55 172.684C191.043 172.737 191.636 172.774 192.346 172.79C193.915 172.822 195.081 172.594 195.923 172.28C195.838 172.44 196.087 172.694 196.299 172.88C196.442 173.002 196.57 173.087 196.57 173.087Z" fill="url(#paint2_linear)"/>
<path d="M200.464 165.553C199.738 166.185 199.288 166.095 199.193 166.641C199.124 167.045 199.362 169.217 197.984 170.858L197.942 170.9C197.942 170.9 197.937 170.905 197.926 170.921C197.921 170.927 197.915 170.937 197.91 170.948C197.778 171.128 197.232 171.797 195.934 172.275C195.934 172.275 195.928 172.281 195.923 172.281C195.081 172.594 193.915 172.822 192.346 172.79C191.636 172.774 191.043 172.737 190.55 172.684C190.476 172.233 190.243 171.489 189.469 171.213C187.847 170.64 188.436 170.937 187.487 170.624C187.455 170.613 187.429 170.603 187.397 170.587C187.254 170.512 187.106 170.417 186.957 170.311C186.925 170.289 186.888 170.263 186.857 170.231C186.173 169.604 185.712 168.442 186.486 167.587C187.482 166.482 188.319 166.902 189.215 166.641C189.967 166.418 193.141 165.495 195.25 162.027C195.266 162.001 195.287 161.974 195.303 161.942C195.733 161.252 196.006 160.516 196.294 159.829C196.294 159.829 198.472 163.009 199.648 163.737C200.825 164.459 201.19 164.916 200.464 165.553Z" fill="#FFBEB5"/>
<path d="M200.841 160.997C200.631 160.018 199.822 159.36 199.036 159.528C198.25 159.697 197.781 160.631 197.991 161.61C198.015 161.725 198.049 161.834 198.089 161.939C197.626 162.128 197.351 162.584 197.156 163.035C197.116 162.996 197.08 162.952 197.037 162.917C196.64 162.587 196.176 162.459 195.73 162.555C194.821 162.751 194.279 163.833 194.522 164.968C194.639 165.513 194.916 165.989 195.304 166.311C195.615 166.569 195.968 166.704 196.32 166.704C196.418 166.704 196.515 166.694 196.611 166.673C197.057 166.577 197.428 166.269 197.655 165.806C197.877 165.353 197.935 164.804 197.819 164.259C197.738 163.878 197.573 163.534 197.351 163.249C197.518 162.836 197.761 162.348 198.199 162.18C198.496 162.742 199.011 163.106 199.548 163.106C199.63 163.106 199.713 163.097 199.796 163.08C200.582 162.91 201.05 161.976 200.841 160.997ZM197.417 165.688C197.226 166.077 196.92 166.335 196.555 166.413C196.19 166.492 195.806 166.383 195.473 166.106C195.131 165.823 194.885 165.398 194.781 164.913C194.568 163.92 195.019 162.979 195.785 162.815C195.862 162.798 195.941 162.79 196.019 162.79C196.311 162.79 196.605 162.903 196.868 163.121C197.21 163.405 197.455 163.829 197.56 164.315C197.663 164.801 197.613 165.289 197.417 165.688ZM199.74 162.819C199.095 162.957 198.428 162.39 198.249 161.555C198.07 160.719 198.448 159.926 199.091 159.788C199.736 159.649 200.404 160.218 200.582 161.053C200.761 161.889 200.383 162.681 199.74 162.819Z" fill="#1C2868"/>
<path d="M156.846 60.2146C156.928 63.6173 157.011 67.0201 157.094 70.4235C157.104 70.8257 157.107 71.2535 156.895 71.5957C156.403 72.3912 155.062 72.1207 154.556 71.3335C154.049 70.5463 154.125 69.5342 154.22 68.6035C153.52 70.062 153.739 72.9555 152.121 72.9783C150.92 72.9956 150.997 70.8568 150.4 69.8157C149.202 71.2976 147.473 72.494 145.567 72.5029C143.661 72.5119 141.712 70.9851 141.748 69.0809C141.797 66.5447 144.765 65.2904 147.174 64.488C150.524 63.371 153.766 61.9387 156.846 60.2146Z" fill="#F2A19C"/>
<path d="M154.835 64.2748C155.121 64.0795 155.421 63.878 155.764 63.8297C156.737 63.6918 157.449 64.9081 157.216 65.8616C156.982 66.8151 156.173 67.5009 155.409 68.1184C153.066 70.0122 150.723 71.9061 148.38 73.7992C147.481 74.5257 146.537 75.2743 145.408 75.5192C144.728 75.6669 144.002 75.6262 143.363 75.9035C142.232 76.3954 141.736 77.6987 141.355 78.8716C139.926 83.2596 138.499 87.6482 137.071 92.0362C134.798 90.519 131.923 89.9312 129.236 90.4355C133.237 81.5513 139.481 64.8495 140.373 64.7053C147.978 63.4199 154.944 59.9917 160.919 55.1187C161.343 54.7723 161.867 54.3956 162.388 54.5647C163.194 54.8262 163.093 56.008 162.718 56.7669C161.166 59.913 157.926 61.8524 154.706 63.2488C151.485 64.6452 148.05 65.7146 145.286 67.8776C145.14 68.76 145.325 69.6935 145.796 70.4538C148.809 68.395 151.822 66.3349 154.835 64.2748Z" fill="#FFBEB6"/>
<path d="M28.687 239.836C28.2913 239.601 28.1263 239.108 28.0959 238.65C27.9391 236.29 30.4065 234.49 30.6586 232.139C30.8513 230.345 29.6586 228.631 28.1304 227.67C26.6021 226.709 24.7825 226.351 23.0098 226.011C26.7644 220.915 29.7615 215.262 31.8712 209.296C32.9534 211.402 34.2047 213.42 35.6107 215.325C36.188 216.108 37.1065 216.962 37.9967 216.568C36.5347 219.754 35.2337 222.412 33.7724 225.598C34.7482 227.367 35.5714 229.186 35.4726 230.393C35.3732 231.6 34.4878 232.664 33.9423 233.745C32.9789 235.655 32.316 236.421 31.3526 238.332C30.8962 239.236 29.5578 240.352 28.687 239.836Z" fill="#FFBEB6"/>
<path d="M94.4331 344.559C90.8407 343.469 87.2304 342.374 83.513 341.845C77.3193 340.965 71.0219 341.68 64.8115 342.439C66.2175 346.414 67.1692 350.549 67.6415 354.739C81.7465 354.709 95.9911 354.709 109.964 354.709C110.38 352.163 100.287 346.337 94.4331 344.559Z" fill="#5C6A7C"/>
<path d="M89.48 368.929C90.7037 367.799 86.6949 364.128 84.3539 362.509C82.269 361.066 79.8188 360.263 77.408 359.478C64.5757 355.301 50.5543 351.128 37.8877 355.782C38.4187 360.646 37.9291 368.929 37.9291 368.929C37.9291 368.929 83.3629 368.89 89.48 368.929Z" fill="#5C6A7C"/>
<path d="M95.8752 205.381C96.8434 205.498 97.8917 205.652 98.5698 206.353C99.308 207.115 99.3778 208.286 99.3647 209.347C99.2493 218.443 96.1825 227.242 95.2281 236.289C94.3014 245.071 95.3794 253.925 95.6162 262.754C96.3393 289.707 89.2201 316.487 90.7187 343.407C79.2717 342.459 70.5289 343.212 62.7993 343.498C68.1672 314.099 73.5571 284.332 71.5178 254.517C70.3259 237.092 66.6962 218.948 72.8969 202.619C80.5561 203.54 88.216 204.461 95.8752 205.381Z" fill="#19293E"/>
<path d="M119.566 106.674C120.821 103.623 121.04 100.258 121.824 97.0537C123.169 91.5598 128.507 82.9371 132.763 79.208C133.386 78.6623 134.762 77.21 134.762 77.21C134.762 77.21 136.573 78.1455 137.37 78.4401C140.311 79.5261 141.178 79.7399 141.178 79.7399C141.644 85.7851 142.473 92.8486 141.645 98.9786C139.58 114.252 138.05 116.752 129.439 128.292C121.991 138.274 113.706 141.937 105.521 151.324C103.915 153.165 102.136 155.236 99.7031 155.463C96.8759 155.728 94.3871 153.189 93.7642 150.421C93.1413 147.653 86.7956 148.77 87.7375 146.093C91.3513 135.829 102.191 125.969 109.924 118.307C113.529 114.735 117.636 111.367 119.566 106.674Z" fill="#1B57A5"/>
<path d="M80.7191 134.218C75.1157 135.613 71.9121 138.224 69.5531 143.49C67.1934 148.756 70.1305 161.288 69.4454 167.017C67.7321 181.336 70.3142 190.496 68.5283 203.874C73.7608 207.587 96.4622 206.657 100.694 205.362C107.1 196.261 107.841 189.228 111.571 178.745C116.258 165.575 116.405 151.148 118.476 135.28C118.855 132.377 108.111 127.92 105.502 126.587C101.543 124.565 99.0221 128.086 94.7288 129.242C90.3575 130.419 85.5393 130.687 80.7191 134.218Z" fill="#1B57A5"/>
<path d="M97.9891 117.715C97.6839 124.651 97.8406 128.613 97.6079 135.56C92.9583 137.504 87.6802 133.23 83.0084 135.455C83.8247 130.005 84.0519 125.428 84.0574 119.918C88.7844 120.076 93.5411 119.324 97.9891 117.715Z" fill="#F2A19C"/>
<path d="M80.8641 123.061C78.6046 121.833 72.7795 118.694 71.781 117.378C70.2044 115.302 70.1968 112.36 71.1021 109.915C72.0075 107.47 73.6946 105.408 75.3519 103.395C76.4886 102.015 77.7192 100.569 79.4208 100.018C81.1549 99.456 83.036 99.9334 84.7949 100.413C87.9895 101.283 91.1841 102.153 94.378 103.023C95.0299 103.2 95.7474 103.427 96.0817 104.014C96.3765 104.532 96.2799 105.171 96.2978 105.766C96.3869 108.775 99.4648 110.894 100.126 113.831C101.065 117.997 98.6486 118.781 94.9305 120.888C92.8601 122.061 89.9887 122.629 87.6794 123.206C85.3598 123.786 82.1403 123.755 80.8641 123.061Z" fill="#FFBEB6"/>
<path d="M98.9297 109.63C100.841 111.648 102.006 113.705 103.917 115.722C104.289 116.116 104.686 116.57 104.668 117.111C104.645 117.764 104.039 118.222 103.491 118.579C99.5408 121.161 96.8103 123.329 92.8602 125.911C92.3989 126.213 91.2726 126.538 90.7229 126.505C90.1918 126.472 88.8694 125.7 88.4578 125.364C86.2707 123.581 86.422 122.628 84.335 120.728C82.9042 119.426 79.5259 116.879 81.1384 115.809C82.7232 116.676 84.3074 117.543 85.8923 118.41C87.3667 119.217 88.8928 120.04 90.5654 120.21C92.238 120.379 94.1129 119.729 94.8788 118.234C93.2421 115.634 93.394 112.03 95.2427 109.577C95.5438 109.178 95.9505 108.882 96.4222 108.714C97.6666 108.27 98.4518 109.125 98.9297 109.63Z" fill="#19293E"/>
<path d="M85.924 109.349C85.3846 109.349 84.8411 109.268 84.3073 109.109C83.1534 108.765 82.17 108.089 81.5388 107.207C80.8883 106.299 80.6853 105.28 80.9663 104.339C81.3959 102.904 82.9213 101.941 84.7631 101.941C85.3018 101.941 85.8459 102.022 86.3798 102.181C88.7933 102.902 90.2919 105.042 89.7208 106.952C89.2919 108.386 87.7657 109.349 85.924 109.349ZM84.7631 102.631C83.2286 102.631 81.969 103.396 81.6279 104.536C81.409 105.269 81.5768 106.075 82.1002 106.807C82.643 107.565 83.4973 108.148 84.5048 108.449C84.9744 108.589 85.4523 108.66 85.924 108.66C87.4584 108.66 88.718 107.895 89.0592 106.755C89.5212 105.21 88.2305 103.455 86.1823 102.843C85.7127 102.702 85.2348 102.631 84.7631 102.631Z" fill="#23286B"/>
<path d="M27.9238 218.071C31.1737 221.11 35.0022 223.159 35.0022 223.159C35.0022 223.159 37.6803 221.309 40.2962 219.381C46.4928 214.813 59.0081 203.699 62.5128 196.848C67.4621 187.172 72.4115 177.496 77.3608 167.822C80.6528 161.387 83.1679 152.715 83.8937 145.524C84.4123 140.388 82.8199 135.752 77.6543 135.901C74.1566 136.002 71.7154 139.271 69.7914 142.191C54.1844 165.879 34.8296 193.32 27.9238 218.071Z" fill="#1B57A5"/>
<path d="M48.4071 295.639C46.7669 304.062 48.8111 312.853 47.3463 321.307C45.1261 334.125 34.9968 345.68 37.1541 358.508C47.8297 356.661 59.6338 357.681 69.4151 356.991C67.4815 304.737 99.0464 257.243 100.953 204.988C89.5585 206.946 81.3579 207.377 68.5332 203.843C56.511 223.323 66.0782 249.425 58.5157 271.028C55.5787 279.419 50.1059 286.914 48.4071 295.639Z" fill="#19293E"/>
<path d="M30.0972 276.171L1.89127 273.706C0.751132 273.607 -0.0920624 272.602 0.00807121 271.464L3.70956 229.195C3.80901 228.056 4.81449 227.213 5.95394 227.313L34.1599 229.778C35.3 229.878 36.1432 230.882 36.0431 232.021L32.3416 274.29C32.2421 275.429 31.2373 276.271 30.0972 276.171Z" fill="#1B57A5"/>
<path d="M95.0492 146.165C92.6412 144.845 91.6309 144.069 88.9121 141.896C87.4259 140.709 85.464 138.775 84.0884 137.461C82.9303 136.355 81.7812 135.241 80.6396 134.118C82.0401 132.74 82.9614 130.711 83.7162 128.898C85.9688 131.303 86.8624 132.038 89.5329 133.514C90.5874 134.097 95.7695 136.564 96.7218 135.825C96.2218 139.303 95.246 142.658 95.0492 146.165Z" fill="#19293E"/>
<path d="M99.2714 110.646C97.5602 111.349 96.7667 113.685 97.6969 115.283C98.6174 114.154 99.7576 113.205 101.034 112.504C100.527 111.816 99.933 111.189 99.2714 110.646Z" fill="#FFBEB6"/>
<path d="M92.434 103.095C91.6142 103.095 90.6025 102.86 89.5839 102.433C88.6296 102.032 87.7877 101.51 87.2139 100.962C86.5592 100.337 86.312 99.7214 86.5192 99.2301C86.6573 98.9017 87.044 98.5112 88.1027 98.5112C88.9224 98.5112 89.9341 98.7465 90.9527 99.1736C91.907 99.5744 92.7489 100.096 93.3227 100.644C93.9774 101.27 94.2246 101.885 94.0174 102.376C93.8793 102.704 93.4926 103.095 92.434 103.095ZM88.1027 99.2005C87.4963 99.2005 87.216 99.3536 87.1552 99.4971C87.0923 99.6469 87.1945 99.9891 87.6904 100.463C88.2049 100.954 88.9714 101.428 89.8498 101.797C90.7724 102.184 91.7137 102.405 92.4333 102.405C93.0396 102.405 93.32 102.252 93.3807 102.109C93.4436 101.959 93.3407 101.617 92.8455 101.143C92.3311 100.651 91.5645 100.178 90.6861 99.809C89.7628 99.4226 88.8215 99.2005 88.1027 99.2005Z" fill="#23286B"/>
<path d="M82.4642 103.196C82.3675 103.196 82.2708 103.156 82.2024 103.076C82.0781 102.932 82.094 102.714 82.239 102.59C82.8433 102.07 83.5822 101.48 84.3653 100.855C85.1671 100.214 86.022 99.5314 86.8445 98.8353C86.9895 98.7118 87.2084 98.7304 87.3313 98.8753C87.455 99.0208 87.4363 99.2382 87.2913 99.3617C86.464 100.062 85.6028 100.75 84.7969 101.394C84.0193 102.014 83.2853 102.601 82.69 103.112C82.6244 103.169 82.5443 103.196 82.4642 103.196Z" fill="#23286B"/>
<path d="M96.7228 135.941C96.7538 136.106 96.9693 136.328 97.0687 136.463C98.7137 138.682 100.359 140.902 102.003 143.121C101.96 138.088 100.984 131.894 97.7476 128.036C97.769 130.095 97.6191 133.055 97.01 135.165C96.961 135.337 96.6896 135.765 96.7228 135.941Z" fill="#19293E"/>
<path d="M32.6139 236.226L6.68494 233.959L3.34282 272.105L29.2718 274.372L32.6139 236.226Z" fill="white"/>
<path d="M24.1368 272.884L10.0338 271.651L9.61227 276.462L23.7153 277.695L24.1368 272.884Z" fill="#19293E"/>
<path d="M17.932 232.57C17.9064 233.731 17.3733 234.907 17.6378 236.039C17.9023 237.171 17.8464 237.806 18.8152 238.451C18.992 238.569 20.0092 238.78 20.2212 238.763C20.6563 238.729 20.8828 238.237 20.9954 237.816C21.4083 236.27 21.7529 234.506 21.5223 232.923C21.1639 234.941 21.1211 237.19 21.8607 239.101C22.1093 239.743 22.659 240.478 23.3157 240.272C23.7052 240.149 23.9172 239.737 24.0588 239.354C25.6278 235.109 25.3467 230.397 27.3487 226.337C27.897 225.226 27.0752 223.763 26.8466 222.544C23.3061 223.722 19.7896 224.972 16.3008 226.293C15.7926 226.486 15.2367 226.724 15.0143 227.219C14.8914 227.492 14.8928 227.803 14.8955 228.102C14.9204 230.457 14.9459 232.811 14.9708 235.166C14.9763 235.677 14.9867 236.21 15.2228 236.664C15.459 237.118 15.9942 237.46 16.4811 237.302C17.0301 237.124 17.3685 236.669 17.4603 236.099C17.6571 234.882 17.9465 233.801 17.932 232.57Z" fill="url(#paint3_linear)"/>
<path d="M31.6149 225.081C31.8642 225.108 32.5458 225.814 32.7163 225.998C33.2308 226.549 30.9195 228.259 30.2337 228.571C28.0922 229.546 28.1406 229.71 27.3692 231.93C26.6165 234.097 25.8002 236.854 25.0475 239.021C24.149 241.607 23.5862 247.052 21.9054 246.616C19.219 245.92 20.931 240.656 21.3059 237.908C21.7396 234.731 22.5352 229.822 22.7085 229.049C23.0165 227.671 26.6503 226.031 28.0163 225.669C29.3815 225.306 30.2089 224.935 31.6149 225.081Z" fill="#FFBEB6"/>
<path d="M27.9197 249.575L9.5968 247.972L9.471 249.408L27.7939 251.01L27.9197 249.575Z" fill="#D6D7D8"/>
<path d="M27.6364 252.805L9.31348 251.203L9.18767 252.639L27.5106 254.241L27.6364 252.805Z" fill="#D6D7D8"/>
<path d="M27.3534 256.035L9.0304 254.433L8.90457 255.869L27.2275 257.471L27.3534 256.035Z" fill="#D6D7D8"/>
<path d="M27.0706 259.266L8.74768 257.664L8.62188 259.1L26.9448 260.702L27.0706 259.266Z" fill="#D6D7D8"/>
<path d="M26.7873 262.496L8.46436 260.894L8.33857 262.33L26.6615 263.932L26.7873 262.496Z" fill="#D6D7D8"/>
<path d="M26.5046 265.727L8.18164 264.125L8.05584 265.56L26.3788 267.163L26.5046 265.727Z" fill="#D6D7D8"/>
<path d="M16.2147 248.347L14.1556 248.167L13.9949 250.001L16.054 250.181L16.2147 248.347Z" fill="white"/>
<path d="M22.7935 255.505L15.9484 254.906L15.7876 256.741L22.6328 257.34L22.7935 255.505Z" fill="white"/>
<path d="M14.6692 261.182L11.1077 260.87L10.947 262.705L14.5085 263.016L14.6692 261.182Z" fill="white"/>
<path d="M16.798 264.728L13.2365 264.417L13.0757 266.251L16.6373 266.563L16.798 264.728Z" fill="white"/>
<path d="M321.2 119.64C329.797 122.973 336.615 128.858 340.783 135.741C349.993 126.748 358.515 112.913 364.242 96.2355C375.918 62.2297 354.491 22.6822 354.491 22.6822C354.491 22.6822 314.134 38.2697 302.458 72.2761C296.732 88.9539 294.866 105.37 296.462 118.554C303.822 116.14 312.604 116.306 321.2 119.64Z" fill="#F7C242"/>
<path d="M345.235 73.6014C347.489 74.5004 349.447 75.8734 351.041 77.5629C350.335 71.7037 346.495 66.3227 340.744 64.0276C332.741 60.8339 324.067 64.8263 321.37 72.9458C319.432 78.7799 321.108 85.1563 325.174 89.4694C324.898 87.1739 325.102 84.8055 325.861 82.5196C328.558 74.4002 337.233 70.4076 345.235 73.6014Z" fill="#EFEFEF"/>
<path d="M350.193 84.2831C350.952 81.9952 351.157 79.6246 350.88 77.3271C349.287 75.6359 347.326 74.2619 345.071 73.362C337.062 70.1654 328.382 74.1616 325.684 82.2883C324.924 84.5762 324.719 86.9468 324.996 89.2443C326.59 90.9355 328.551 92.3095 330.805 93.2094C338.815 96.4064 347.495 92.4098 350.193 84.2831Z" fill="white"/>
<path d="M354.934 97.4668L336.906 133.053L351.051 153.728C360.302 131.81 361.205 113.212 354.934 97.4668Z" fill="#1B57A5"/>
<path d="M306.71 79.7637L299.673 120.191L276.412 126.043C282.19 102.472 292.502 87.4445 306.71 79.7637Z" fill="#1B57A5"/>
<path d="M354.386 27.3297C354.251 27.3518 354.107 27.3374 353.967 27.2803C353.55 27.11 353.323 26.6255 353.46 26.1988L361.607 0.922653C361.746 0.495757 362.197 0.288099 362.613 0.457614C363.03 0.627945 363.257 1.11242 363.119 1.53916L354.972 26.8153C354.88 27.0997 354.651 27.2863 354.386 27.3297Z" fill="#1B57A5"/>
<path d="M324.657 184.768C324.633 184.772 324.609 184.772 324.583 184.768C324.441 184.748 324.334 184.611 324.346 184.46C325.221 172.16 325.381 160.904 324.865 147.966C324.859 147.815 324.969 147.693 325.112 147.694C325.254 147.696 325.375 147.82 325.381 147.972C325.899 160.933 325.738 172.209 324.861 184.531C324.852 184.655 324.767 184.749 324.657 184.768Z" fill="#A2ADBB"/>
<path d="M277.809 167.526C277.742 167.537 277.669 167.521 277.607 167.476C277.481 167.385 277.444 167.21 277.523 167.084C284.045 156.812 290.527 147.894 298.54 138.171C298.633 138.055 298.804 138.049 298.919 138.155C299.035 138.26 299.052 138.437 298.958 138.551C290.959 148.259 284.489 157.161 277.979 167.414C277.938 167.476 277.877 167.515 277.809 167.526Z" fill="#A2ADBB"/>
<path d="M318.69 191.313L322.09 196.918L327.471 193.756L324.071 188.15L318.69 191.313Z" fill="#1B57A5"/>
<path d="M286.856 191.026L283.073 195.99L288.271 199.997L292.054 195.033L286.856 191.026Z" fill="#1B236D"/>
<path d="M278.126 150.256L280.443 154.076L284.111 151.921L281.793 148.101L278.126 150.256Z" fill="#5BABF2"/>
<path d="M292.524 188.248C292.479 188.255 292.431 188.25 292.385 188.232C292.246 188.174 292.17 188.014 292.216 187.871L303.827 151.836C303.874 151.693 304.024 151.625 304.162 151.68C304.301 151.738 304.377 151.899 304.331 152.041L292.72 188.077C292.688 188.171 292.611 188.234 292.524 188.248Z" fill="#A2ADBB"/>
<path d="M311.935 178.12C311.904 178.125 311.873 178.124 311.841 178.117C311.698 178.086 311.599 177.94 311.62 177.791L312.947 168.329C312.968 168.18 313.101 168.083 313.245 168.115C313.388 168.146 313.487 168.292 313.466 168.442L312.139 177.903C312.122 178.018 312.038 178.103 311.935 178.12Z" fill="#5BABF2"/>
<path d="M339.584 97.0187C336.483 97.5225 333.241 97.1371 330.21 95.903C325.683 94.0602 322.006 90.5326 319.858 85.9698C317.71 81.4076 317.346 76.3557 318.834 71.7455C320.798 65.6654 325.836 61.2677 331.982 60.2693C335.083 59.7655 338.325 60.1509 341.356 61.3845C350.702 65.1881 355.804 76.025 352.732 85.5414C350.768 91.6232 345.731 96.0203 339.584 97.0187ZM333.131 65.8034C328.833 66.5016 325.312 69.5749 323.94 73.8242C322.9 77.0456 323.154 80.5758 324.655 83.7645C326.157 86.9526 328.726 89.4178 331.889 90.7057C334.009 91.5683 336.272 91.8381 338.437 91.4865C342.734 90.7884 346.256 87.7144 347.628 83.4652C349.775 76.8151 346.209 69.2426 339.679 66.5848C337.558 65.7217 335.295 65.452 333.131 65.8034Z" fill="#19293E"/>
<path d="M366.441 56.2451C362.917 36.5388 354.775 21.2931 354.775 21.2931C354.775 21.2931 339.593 27.2342 325.331 39.8451L366.441 56.2451Z" fill="#1B57A5"/>
<path d="M349.757 194.08C350.705 194.429 351.796 193.905 352.193 192.908C352.59 191.912 352.143 190.822 351.195 190.473C350.247 190.124 349.156 190.648 348.759 191.645C348.362 192.641 348.809 193.731 349.757 194.08Z" fill="#F7C242"/>
<path d="M341.126 162.71L342.366 161.149L340.887 159.991L339.647 161.552L341.126 162.71Z" fill="#49BEE3"/>
<path d="M351.288 173.916L354.666 169.666L350.639 166.512L347.262 170.763L351.288 173.916Z" fill="#1B57A5"/>
<path d="M337.482 189.158L340.86 184.908L336.833 181.754L333.456 186.005L337.482 189.158Z" fill="#1D72D8"/>
<path d="M342.78 174.292C342.71 174.265 342.659 174.198 342.656 174.114C342.442 168.287 346.345 162.328 351.734 160.252C351.841 160.211 351.954 160.266 351.987 160.374C352.021 160.482 351.961 160.603 351.855 160.644C346.634 162.655 342.852 168.428 343.06 174.074C343.064 174.189 342.977 174.291 342.866 174.303C342.835 174.305 342.806 174.301 342.78 174.292Z" fill="#23286B"/>
<path d="M353.057 186.485C353.006 186.466 352.963 186.426 352.942 186.37C352.9 186.26 352.953 186.13 353.062 186.08C357.012 184.246 362.039 185.87 364.038 189.627C364.093 189.731 364.055 189.865 363.952 189.928C363.849 189.992 363.722 189.958 363.667 189.856C361.762 186.278 356.976 184.731 353.214 186.478C353.161 186.502 353.105 186.503 353.057 186.485Z" fill="#23286B"/>
<path d="M254.934 158.783C255.25 159.711 256.221 160.244 257.103 159.974C257.986 159.704 258.445 158.733 258.129 157.805C257.814 156.877 256.843 156.344 255.961 156.614C255.078 156.884 254.619 157.855 254.934 158.783Z" fill="#F7C242"/>
<path d="M272.296 134.698L274.011 134.73L273.938 132.974L272.223 132.942L272.296 134.698Z" fill="#49BEE3"/>
<path d="M270.277 148.348L274.948 148.435L274.75 143.654L270.079 143.567L270.277 148.348Z" fill="#1B57A5"/>
<path d="M251.519 147.255L256.19 147.342L255.992 142.561L251.322 142.474L251.519 147.255Z" fill="#1D72D8"/>
<path d="M265.07 142.324C265.045 142.251 265.061 142.17 265.116 142.117C268.929 138.442 275.3 138.017 279.935 141.128C280.026 141.19 280.057 141.314 280.004 141.406C279.951 141.498 279.833 141.522 279.742 141.461C275.252 138.447 269.08 138.859 265.385 142.419C265.31 142.492 265.188 142.483 265.114 142.4C265.094 142.377 265.079 142.351 265.07 142.324Z" fill="#23286B"/>
<path d="M262.233 156.668C262.217 156.62 262.218 156.567 262.241 156.52C262.286 156.429 262.395 156.397 262.485 156.449C265.77 158.361 267.51 162.97 266.283 166.513C266.249 166.611 266.145 166.656 266.05 166.615C265.955 166.573 265.906 166.461 265.939 166.364C267.107 162.99 265.451 158.601 262.323 156.781C262.279 156.755 262.248 156.714 262.233 156.668Z" fill="#23286B"/>
<path d="M341.218 209.09C341.934 209.354 342.757 208.958 343.057 208.206C343.356 207.454 343.019 206.631 342.303 206.367C341.588 206.104 340.765 206.5 340.465 207.252C340.165 208.004 340.502 208.827 341.218 209.09Z" fill="#23286B"/>
<path d="M305.883 210.224C304.932 209.941 304.02 209.605 303.146 209.217C303.511 208.182 303.891 207.212 304.292 206.341C305.221 206.636 306.133 206.972 307.029 207.348C306.711 208.296 306.324 209.256 305.883 210.224Z" fill="#49BEE3"/>
<path d="M245.659 162.071C244.944 161.807 244.607 160.984 244.906 160.232C245.206 159.48 246.029 159.084 246.745 159.347C247.46 159.611 247.798 160.434 247.498 161.186C247.198 161.938 246.375 162.334 245.659 162.071Z" fill="#1B57A5"/>
<path d="M323.181 222.298C324.612 222.825 326.258 222.033 326.858 220.529C327.457 219.025 326.783 217.379 325.352 216.852C323.92 216.325 322.274 217.117 321.674 218.621C321.075 220.125 321.749 221.771 323.181 222.298Z" fill="#F7C242"/>
<path d="M254.655 188.175L251.077 190.863L248.951 187.584L252.529 184.896L254.655 188.175Z" fill="#F7C242"/>
<path d="M308.706 142.043L307.45 138.978L310.515 137.504L311.77 140.568L308.706 142.043Z" fill="#49BEE3"/>
<path d="M313.999 157.998L311.302 160.049L309.717 157.568L312.413 155.518L313.999 157.998Z" fill="#F7C242"/>
</g>
<defs>
<linearGradient id="paint0_linear" x1="445.073" y1="306.972" x2="446.14" y2="312.443" gradientUnits="userSpaceOnUse">
<stop offset="0.0382" stop-color="#FFBEB5"/>
<stop offset="1" stop-color="#F99A91"/>
</linearGradient>
<linearGradient id="paint1_linear" x1="216.564" y1="250.373" x2="181.045" y2="248.258" gradientUnits="userSpaceOnUse">
<stop stop-color="#F5F3F3"/>
<stop offset="0.2532" stop-color="#F7F5F5"/>
<stop offset="1" stop-color="#D8D8D8"/>
</linearGradient>
<linearGradient id="paint2_linear" x1="193.355" y1="175.355" x2="193.462" y2="171.031" gradientUnits="userSpaceOnUse">
<stop offset="0.0325" stop-color="#FFBEB5"/>
<stop offset="1" stop-color="#F49E95"/>
</linearGradient>
<linearGradient id="paint3_linear" x1="21.1789" y1="228.429" x2="21.649" y2="240.778" gradientUnits="userSpaceOnUse">
<stop stop-color="#FFBEB6"/>
<stop offset="1" stop-color="#F2A19C"/>
</linearGradient>
<clipPath id="clip0">
<rect width="540" height="380" fill="white"/>
</clipPath>
</defs>
</svg>
